<svg width="1280" height="720" xmlns="http://www.w3.org/2000/svg" xmlns:xlink="http://www.w3.org/1999/xlink" overflow="hidden"><defs><filter id="fx0" x="-10%" y="-10%" width="120%" height="120%" filterUnits="userSpaceOnUse" primitiveUnits="userSpaceOnUse"><feComponentTransfer color-interpolation-filters="sRGB"><feFuncR type="discrete" tableValues="1 1"/><feFuncG type="discrete" tableValues="1 1"/><feFuncB type="discrete" tableValues="1 1"/><feFuncA type="linear" slope="0.4" intercept="0"/></feComponentTransfer><feGaussianBlur stdDeviation="1.77778 1.77778"/></filter><filter id="fx1" x="-10%" y="-10%" width="120%" height="120%" filterUnits="userSpaceOnUse" primitiveUnits="userSpaceOnUse"><feComponentTransfer color-interpolation-filters="sRGB"><feFuncR type="discrete" tableValues="1 1"/><feFuncG type="discrete" tableValues="1 1"/><feFuncB type="discrete" tableValues="1 1"/><feFuncA type="linear" slope="0.4" intercept="0"/></feComponentTransfer><feGaussianBlur stdDeviation="1.77778 1.77778"/></filter><filter id="fx2" x="-10%" y="-10%" width="120%" height="120%" filterUnits="userSpaceOnUse" primitiveUnits="userSpaceOnUse"><feComponentTransfer color-interpolation-filters="sRGB"><feFuncR type="discrete" tableValues="1 1"/><feFuncG type="discrete" tableValues="1 1"/><feFuncB type="discrete" tableValues="1 1"/><feFuncA type="linear" slope="0.4" intercept="0"/></feComponentTransfer><feGaussianBlur stdDeviation="1.77778 1.77778"/></filter><filter id="fx3" x="-10%" y="-10%" width="120%" height="120%" filterUnits="userSpaceOnUse" primitiveUnits="userSpaceOnUse"><feComponentTransfer color-interpolation-filters="sRGB"><feFuncR type="discrete" tableValues="1 1"/><feFuncG type="discrete" tableValues="1 1"/><feFuncB type="discrete" tableValues="1 1"/><feFuncA type="linear" slope="0.4" intercept="0"/></feComponentTransfer><feGaussianBlur stdDeviation="1.77778 1.77778"/></filter><filter id="fx4" x="-10%" y="-10%" width="120%" height="120%" filterUnits="userSpaceOnUse" primitiveUnits="userSpaceOnUse"><feComponentTransfer color-interpolation-filters="sRGB"><feFuncR type="discrete" tableValues="1 1"/><feFuncG type="discrete" tableValues="1 1"/><feFuncB type="discrete" tableValues="1 1"/><feFuncA type="linear" slope="0.4" intercept="0"/></feComponentTransfer><feGaussianBlur stdDeviation="1.77778 1.77778"/></filter><filter id="fx5" x="-10%" y="-10%" width="120%" height="120%" filterUnits="userSpaceOnUse" primitiveUnits="userSpaceOnUse"><feComponentTransfer color-interpolation-filters="sRGB"><feFuncR type="discrete" tableValues="1 1"/><feFuncG type="discrete" tableValues="1 1"/><feFuncB type="discrete" tableValues="1 1"/><feFuncA type="linear" slope="0.4" intercept="0"/></feComponentTransfer><feGaussianBlur stdDeviation="1.77778 1.77778"/></filter><filter id="fx6" x="-10%" y="-10%" width="120%" height="120%" filterUnits="userSpaceOnUse" primitiveUnits="userSpaceOnUse"><feComponentTransfer color-interpolation-filters="sRGB"><feFuncR type="discrete" tableValues="1 1"/><feFuncG type="discrete" tableValues="1 1"/><feFuncB type="discrete" tableValues="1 1"/><feFuncA type="linear" slope="0.4" intercept="0"/></feComponentTransfer><feGaussianBlur stdDeviation="1.77778 1.77778"/></filter><filter id="fx7" x="-10%" y="-10%" width="120%" height="120%" filterUnits="userSpaceOnUse" primitiveUnits="userSpaceOnUse"><feComponentTransfer color-interpolation-filters="sRGB"><feFuncR type="discrete" tableValues="1 1"/><feFuncG type="discrete" tableValues="1 1"/><feFuncB type="discrete" tableValues="1 1"/><feFuncA type="linear" slope="0.4" intercept="0"/></feComponentTransfer><feGaussianBlur stdDeviation="1.77778 1.77778"/></filter><filter id="fx8" x="-10%" y="-10%" width="120%" height="120%" filterUnits="userSpaceOnUse" primitiveUnits="userSpaceOnUse"><feComponentTransfer color-interpolation-filters="sRGB"><feFuncR type="discrete" tableValues="1 1"/><feFuncG type="discrete" tableValues="1 1"/><feFuncB type="discrete" tableValues="1 1"/><feFuncA type="linear" slope="0.4" intercept="0"/></feComponentTransfer><feGaussianBlur stdDeviation="1.77778 1.77778"/></filter><filter id="fx9" x="-10%" y="-10%" width="120%" height="120%" filterUnits="userSpaceOnUse" primitiveUnits="userSpaceOnUse"><feComponentTransfer color-interpolation-filters="sRGB"><feFuncR type="discrete" tableValues="1 1"/><feFuncG type="discrete" tableValues="1 1"/><feFuncB type="discrete" tableValues="1 1"/><feFuncA type="linear" slope="0.4" intercept="0"/></feComponentTransfer><feGaussianBlur stdDeviation="1.77778 1.77778"/></filter><filter id="fx10" x="-10%" y="-10%" width="120%" height="120%" filterUnits="userSpaceOnUse" primitiveUnits="userSpaceOnUse"><feComponentTransfer color-interpolation-filters="sRGB"><feFuncR type="discrete" tableValues="1 1"/><feFuncG type="discrete" tableValues="1 1"/><feFuncB type="discrete" tableValues="1 1"/><feFuncA type="linear" slope="0.4" intercept="0"/></feComponentTransfer><feGaussianBlur stdDeviation="1.77778 1.77778"/></filter><clipPath id="clip11"><rect x="0" y="0" width="1280" height="720"/></clipPath><radialGradient cx="6096000" cy="3429000" r="6994230" fx="6096000" fy="3429000" gradientUnits="userSpaceOnUse" spreadMethod="pad" id="fill12" gradientTransform="matrix(0.000104987 0 0 0.000104987 0.500053 0.500053)"><stop offset="0" stop-color="#05324B"/><stop offset="0.62" stop-color="#032030"/><stop offset="0.76" stop-color="#032030"/><stop offset="1" stop-color="#032030"/></radialGradient><clipPath id="clip13"><path d="M21.6672 25.5001C20.4703 25.5001 19.5001 26.4703 19.5001 27.6672L19.5001 88.3329C19.5001 89.5298 20.4703 90.5001 21.6672 90.5001L189.333 90.5001C190.53 90.5001 191.5 89.5298 191.5 88.3329L191.5 27.6672C191.5 26.4703 190.53 25.5001 189.333 25.5001ZM1.90735e-05 1.07288e-05 1280 1.07288e-05 1280 720 1.90735e-05 720Z" fill-rule="evenodd" clip-rule="evenodd"/></clipPath><linearGradient x1="84.0058" y1="1.12289" x2="126.994" y2="114.877" gradientUnits="userSpaceOnUse" spreadMethod="reflect" id="fill14"><stop offset="0" stop-color="#365160"/><stop offset="0.62" stop-color="#032030"/><stop offset="0.76" stop-color="#032030"/><stop offset="1" stop-color="#032030"/></linearGradient><clipPath id="clip15"><path d="M212.667 25.5001C211.47 25.5001 210.5 26.4703 210.5 27.6671L210.5 88.3331C210.5 89.5299 211.47 90.5001 212.667 90.5001L402.333 90.5001C403.53 90.5001 404.5 89.5299 404.5 88.3331L404.5 27.6671C404.5 26.4703 403.53 25.5001 402.333 25.5001ZM1.90735e-05 1.07288e-05 1280 1.07288e-05 1280 720 1.90735e-05 720Z" fill-rule="evenodd" clip-rule="evenodd"/></clipPath><linearGradient x1="287.92" y1="-0.439545" x2="327.08" y2="116.44" gradientUnits="userSpaceOnUse" spreadMethod="reflect" id="fill16"><stop offset="0" stop-color="#365160"/><stop offset="0.62" stop-color="#032030"/><stop offset="0.76" stop-color="#032030"/><stop offset="1" stop-color="#032030"/></linearGradient><clipPath id="clip17"><path d="M426.667 25.5001C425.47 25.5001 424.5 26.4703 424.5 27.6672L424.5 88.333C424.5 89.5298 425.47 90.5001 426.667 90.5001L603.333 90.5001C604.53 90.5001 605.5 89.5298 605.5 88.333L605.5 27.6672C605.5 26.4703 604.53 25.5001 603.333 25.5001ZM1.90735e-05 1.07288e-05 1280 1.07288e-05 1280 720 1.90735e-05 720Z" fill-rule="evenodd" clip-rule="evenodd"/></clipPath><linearGradient x1="494.324" y1="0.425161" x2="535.676" y2="115.575" gradientUnits="userSpaceOnUse" spreadMethod="reflect" id="fill18"><stop offset="0" stop-color="#365160"/><stop offset="0.62" stop-color="#032030"/><stop offset="0.76" stop-color="#032030"/><stop offset="1" stop-color="#032030"/></linearGradient><clipPath id="clip19"><path d="M627.667 25.5001C626.47 25.5001 625.5 26.4703 625.5 27.6672L625.5 88.3329C625.5 89.5298 626.47 90.5001 627.667 90.5001L822.333 90.5001C823.53 90.5001 824.5 89.5298 824.5 88.3329L824.5 27.6672C824.5 26.4703 823.53 25.5001 822.333 25.5001ZM1.90735e-05 1.07288e-05 1280 1.07288e-05 1280 720 1.90735e-05 720Z" fill-rule="evenodd" clip-rule="evenodd"/></clipPath><linearGradient x1="705.816" y1="-0.733688" x2="744.184" y2="116.734" gradientUnits="userSpaceOnUse" spreadMethod="reflect" id="fill20"><stop offset="0" stop-color="#365160"/><stop offset="0.62" stop-color="#032030"/><stop offset="0.76" stop-color="#032030"/><stop offset="1" stop-color="#032030"/></linearGradient><clipPath id="clip21"><path d="M846.667 25.5001C845.47 25.5001 844.5 26.4703 844.5 27.6672L844.5 88.3329C844.5 89.5298 845.47 90.5001 846.667 90.5001L1041.33 90.5001C1042.53 90.5001 1043.5 89.5298 1043.5 88.3329L1043.5 27.6672C1043.5 26.4703 1042.53 25.5001 1041.33 25.5001ZM1.90735e-05 1.07288e-05 1280 1.07288e-05 1280 720 1.90735e-05 720Z" fill-rule="evenodd" clip-rule="evenodd"/></clipPath><linearGradient x1="924.816" y1="-0.733688" x2="963.184" y2="116.734" gradientUnits="userSpaceOnUse" spreadMethod="reflect" id="fill22"><stop offset="0" stop-color="#365160"/><stop offset="0.62" stop-color="#032030"/><stop offset="0.76" stop-color="#032030"/><stop offset="1" stop-color="#032030"/></linearGradient><clipPath id="clip23"><path d="M1063.67 25.5001C1062.47 25.5001 1061.5 26.4703 1061.5 27.6672L1061.5 88.333C1061.5 89.5298 1062.47 90.5001 1063.67 90.5001L1259.33 90.5001C1260.53 90.5001 1261.5 89.5298 1261.5 88.333L1261.5 27.6672C1261.5 26.4703 1260.53 25.5001 1259.33 25.5001ZM1.90735e-05 1.07288e-05 1280 1.07288e-05 1280 720 1.90735e-05 720Z" fill-rule="evenodd" clip-rule="evenodd"/></clipPath><linearGradient x1="1142.39" y1="-0.790222" x2="1180.61" y2="116.79" gradientUnits="userSpaceOnUse" spreadMethod="reflect" id="fill24"><stop offset="0" stop-color="#365160"/><stop offset="0.62" stop-color="#032030"/><stop offset="0.76" stop-color="#032030"/><stop offset="1" stop-color="#032030"/></linearGradient><clipPath id="clip25"><path d="M31.2019 120.5C26.396 120.5 22.5001 124.396 22.5001 129.202L22.5001 372.798C22.5001 377.604 26.396 381.5 31.2019 381.5L564.798 381.5C569.604 381.5 573.5 377.604 573.5 372.798L573.5 129.202C573.5 124.396 569.604 120.5 564.798 120.5ZM1.90735e-05 1.07288e-05 1280 1.07288e-05 1280 720 1.90735e-05 720Z" fill-rule="evenodd" clip-rule="evenodd"/></clipPath><linearGradient x1="197.025" y1="37.8304" x2="398.975" y2="464.17" gradientUnits="userSpaceOnUse" spreadMethod="reflect" id="fill26"><stop offset="0" stop-color="#05324B"/><stop offset="0.62" stop-color="#032030"/><stop offset="0.76" stop-color="#032030"/><stop offset="1" stop-color="#032030"/></linearGradient><clipPath id="clip27"><path d="M31.2019 399.5C26.396 399.5 22.5001 403.396 22.5001 408.202L22.5001 651.798C22.5001 656.604 26.396 660.5 31.2019 660.5L564.798 660.5C569.604 660.5 573.5 656.604 573.5 651.798L573.5 408.202C573.5 403.396 569.604 399.5 564.798 399.5ZM1.90735e-05 1.07288e-05 1280 1.07288e-05 1280 720 1.90735e-05 720Z" fill-rule="evenodd" clip-rule="evenodd"/></clipPath><linearGradient x1="197.025" y1="316.83" x2="398.975" y2="743.17" gradientUnits="userSpaceOnUse" spreadMethod="reflect" id="fill28"><stop offset="0" stop-color="#05324B"/><stop offset="0.62" stop-color="#032030"/><stop offset="0.76" stop-color="#032030"/><stop offset="1" stop-color="#032030"/></linearGradient><clipPath id="clip29"><path d="M614.504 120.5C604.561 120.5 596.5 128.561 596.5 138.504L596.5 642.496C596.5 652.439 604.561 660.5 614.504 660.5L1243.5 660.5C1253.44 660.5 1261.5 652.439 1261.5 642.496L1261.5 138.504C1261.5 128.561 1253.44 120.5 1243.5 120.5ZM1.90735e-05 1.07288e-05 1280 1.07288e-05 1280 720 1.90735e-05 720Z" fill-rule="evenodd" clip-rule="evenodd"/></clipPath><linearGradient x1="664.749" y1="65.0798" x2="1193.25" y2="715.92" gradientUnits="userSpaceOnUse" spreadMethod="reflect" id="fill30"><stop offset="0" stop-color="#05324B"/><stop offset="0.62" stop-color="#032030"/><stop offset="0.76" stop-color="#032030"/><stop offset="1" stop-color="#032030"/></linearGradient><clipPath id="clip31"><path d="M23.6672 0.50006C21.3658 0.50006 19.5001 2.36585 19.5001 4.66741L19.5001 25.5001 1257.33 25.5001C1259.63 25.5001 1261.5 23.6343 1261.5 21.3327L1261.5 0.50006ZM1.90735e-05 1.07288e-05 1280 1.07288e-05 1280 720 1.90735e-05 720Z" fill-rule="evenodd" clip-rule="evenodd"/></clipPath><clipPath id="clip32"><rect x="17" y="5" width="332" height="35"/></clipPath><linearGradient x1="639.997" y1="-11.9898" x2="641.003" y2="37.9899" gradientUnits="userSpaceOnUse" spreadMethod="reflect" id="fill33"><stop offset="0" stop-color="#365160"/><stop offset="0.62" stop-color="#032030"/><stop offset="0.76" stop-color="#032030"/><stop offset="1" stop-color="#032030"/></linearGradient></defs><g clip-path="url(#clip11)"><rect x="0" y="0" width="1280" height="720" fill="#FFFFFF"/><path d="M0.500053 24.5043C0.500053 11.2471 11.2471 0.500053 24.5043 0.500053L1256.5 0.500053C1269.75 0.500053 1280.5 11.2471 1280.5 24.5043L1280.5 696.496C1280.5 709.753 1269.75 720.5 1256.5 720.5L24.5043 720.5C11.2471 720.5 0.500053 709.753 0.500053 696.496Z" stroke="#002060" stroke-width="1.33333" stroke-miterlimit="8" fill="url(#fill12)" fill-rule="evenodd"/><g clip-path="url(#clip13)"><g filter="url(#fx0)" transform="translate(14 21)"><g><path d="M7.79436 9.94378C7.79436 8.74691 8.76461 7.77666 9.96147 7.77666L177.627 7.77666C178.824 7.77666 179.794 8.74691 179.794 9.94378L179.794 70.6095C179.794 71.8064 178.824 72.7767 177.627 72.7767L9.96147 72.7767C8.76461 72.7767 7.79436 71.8064 7.79436 70.6095Z" stroke="#074365" stroke-miterlimit="8" fill="#FF0000" fill-rule="evenodd"/></g></g></g><path d="M19.5001 27.6672C19.5001 26.4703 20.4703 25.5001 21.6672 25.5001L189.333 25.5001C190.53 25.5001 191.5 26.4703 191.5 27.6672L191.5 88.3329C191.5 89.5298 190.53 90.5 189.333 90.5L21.6672 90.5C20.4703 90.5 19.5001 89.5298 19.5001 88.3329Z" stroke="#074365" stroke-width="1.33333" stroke-miterlimit="8" fill="url(#fill14)" fill-rule="evenodd"/><g clip-path="url(#clip15)"><g filter="url(#fx1)" transform="translate(205 21)"><g><path d="M7.79436 9.94367C7.79436 8.74687 8.76456 7.77666 9.96137 7.77666L199.627 7.77666C200.824 7.77666 201.794 8.74687 201.794 9.94367L201.794 70.6096C201.794 71.8065 200.824 72.7767 199.627 72.7767L9.96137 72.7767C8.76456 72.7767 7.79436 71.8065 7.79436 70.6096Z" stroke="#074365" stroke-miterlimit="8" fill="#FF0000" fill-rule="evenodd"/></g></g></g><path d="M210.5 27.6671C210.5 26.4703 211.47 25.5001 212.667 25.5001L402.333 25.5001C403.53 25.5001 404.5 26.4703 404.5 27.6671L404.5 88.333C404.5 89.5298 403.53 90.5 402.333 90.5L212.667 90.5C211.47 90.5 210.5 89.5298 210.5 88.333Z" stroke="#074365" stroke-width="1.33333" stroke-miterlimit="8" fill="url(#fill16)" fill-rule="evenodd"/><g clip-path="url(#clip17)"><g filter="url(#fx2)" transform="translate(419 21)"><g><path d="M7.79437 9.94376C7.79437 8.7469 8.76461 7.77666 9.96146 7.77666L186.627 7.77666C187.824 7.77666 188.794 8.7469 188.794 9.94376L188.794 70.6096C188.794 71.8064 187.824 72.7767 186.627 72.7767L9.96146 72.7767C8.76461 72.7767 7.79437 71.8064 7.79437 70.6096Z" stroke="#074365" stroke-miterlimit="8" fill="#FF0000" fill-rule="evenodd"/></g></g></g><path d="M424.5 27.6671C424.5 26.4703 425.47 25.5001 426.667 25.5001L603.333 25.5001C604.53 25.5001 605.5 26.4703 605.5 27.6671L605.5 88.333C605.5 89.5298 604.53 90.5001 603.333 90.5001L426.667 90.5001C425.47 90.5001 424.5 89.5298 424.5 88.333Z" stroke="#074365" stroke-width="1.33333" stroke-miterlimit="8" fill="url(#fill18)" fill-rule="evenodd"/><g clip-path="url(#clip19)"><g filter="url(#fx3)" transform="translate(620 21)"><g><path d="M7.79437 9.94381C7.79437 8.74693 8.76464 7.77666 9.96152 7.77666L204.627 7.77666C205.824 7.77666 206.794 8.74693 206.794 9.94381L206.794 70.6095C206.794 71.8064 205.824 72.7767 204.627 72.7767L9.96152 72.7767C8.76464 72.7767 7.79437 71.8064 7.79437 70.6095Z" stroke="#074365" stroke-miterlimit="8" fill="#FF0000" fill-rule="evenodd"/></g></g></g><path d="M625.5 27.6672C625.5 26.4703 626.47 25.5001 627.667 25.5001L822.333 25.5001C823.53 25.5001 824.5 26.4703 824.5 27.6672L824.5 88.3329C824.5 89.5298 823.53 90.5 822.333 90.5L627.667 90.5C626.47 90.5 625.5 89.5298 625.5 88.3329Z" stroke="#074365" stroke-width="1.33333" stroke-miterlimit="8" fill="url(#fill20)" fill-rule="evenodd"/><g clip-path="url(#clip21)"><g filter="url(#fx4)" transform="translate(839 21)"><g><path d="M7.79437 9.94381C7.79437 8.74693 8.76464 7.77666 9.96152 7.77666L204.627 7.77666C205.824 7.77666 206.794 8.74693 206.794 9.94381L206.794 70.6095C206.794 71.8064 205.824 72.7767 204.627 72.7767L9.96152 72.7767C8.76464 72.7767 7.79437 71.8064 7.79437 70.6095Z" stroke="#074365" stroke-miterlimit="8" fill="#FF0000" fill-rule="evenodd"/></g></g></g><path d="M844.5 27.6672C844.5 26.4703 845.47 25.5001 846.667 25.5001L1041.33 25.5001C1042.53 25.5001 1043.5 26.4703 1043.5 27.6672L1043.5 88.3329C1043.5 89.5298 1042.53 90.5 1041.33 90.5L846.667 90.5C845.47 90.5 844.5 89.5298 844.5 88.3329Z" stroke="#074365" stroke-width="1.33333" stroke-miterlimit="8" fill="url(#fill22)" fill-rule="evenodd"/><g clip-path="url(#clip23)"><g filter="url(#fx5)" transform="translate(1056 21)"><g><path d="M7.79431 9.94376C7.79431 8.74691 8.76456 7.77666 9.96142 7.77666L205.627 7.77666C206.824 7.77666 207.794 8.74691 207.794 9.94376L207.794 70.6096C207.794 71.8064 206.824 72.7767 205.627 72.7767L9.96142 72.7767C8.76456 72.7767 7.79431 71.8064 7.79431 70.6096Z" stroke="#074365" stroke-miterlimit="8" fill="#FF0000" fill-rule="evenodd"/></g></g></g><path d="M1061.5 27.6672C1061.5 26.4703 1062.47 25.5001 1063.67 25.5001L1259.33 25.5001C1260.53 25.5001 1261.5 26.4703 1261.5 27.6672L1261.5 88.3329C1261.5 89.5298 1260.53 90.5001 1259.33 90.5001L1063.67 90.5001C1062.47 90.5001 1061.5 89.5298 1061.5 88.3329Z" stroke="#074365" stroke-width="1.33333" stroke-miterlimit="8" fill="url(#fill24)" fill-rule="evenodd"/><g clip-path="url(#clip25)"><g filter="url(#fx6)" transform="translate(17 116)"><g><path d="M7.79436 16.4785C7.79436 11.6726 11.6903 7.77666 16.4962 7.77666L550.092 7.77666C554.898 7.77666 558.794 11.6726 558.794 16.4785L558.794 260.075C558.794 264.881 554.898 268.777 550.092 268.777L16.4962 268.777C11.6903 268.777 7.79436 264.881 7.79436 260.075Z" stroke="#074365" stroke-miterlimit="8" fill="#FF0000" fill-rule="evenodd"/></g></g></g><path d="M22.5001 129.202C22.5001 124.396 26.396 120.5 31.2019 120.5L564.798 120.5C569.604 120.5 573.5 124.396 573.5 129.202L573.5 372.798C573.5 377.604 569.604 381.5 564.798 381.5L31.2019 381.5C26.396 381.5 22.5001 377.604 22.5001 372.798Z" stroke="#074365" stroke-width="1.33333" stroke-miterlimit="8" fill="url(#fill26)" fill-rule="evenodd"/><g clip-path="url(#clip27)"><g filter="url(#fx7)" transform="translate(17 395)"><g><path d="M7.79436 16.4786C7.79436 11.6726 11.6903 7.77667 16.4962 7.77667L550.092 7.77667C554.898 7.77667 558.794 11.6726 558.794 16.4786L558.794 260.075C558.794 264.881 554.898 268.777 550.092 268.777L16.4962 268.777C11.6903 268.777 7.79436 264.881 7.79436 260.075Z" stroke="#074365" stroke-miterlimit="8" fill="#FF0000" fill-rule="evenodd"/></g></g></g><path d="M22.5001 408.202C22.5001 403.396 26.396 399.5 31.2019 399.5L564.798 399.5C569.604 399.5 573.5 403.396 573.5 408.202L573.5 651.798C573.5 656.604 569.604 660.5 564.798 660.5L31.2019 660.5C26.396 660.5 22.5001 656.604 22.5001 651.798Z" stroke="#074365" stroke-width="1.33333" stroke-miterlimit="8" fill="url(#fill28)" fill-rule="evenodd"/><g clip-path="url(#clip29)"><g filter="url(#fx8)" transform="translate(591 116)"><g><path d="M7.79437 25.7805C7.79437 15.8373 15.855 7.77666 25.7982 7.77666L654.791 7.77666C664.734 7.77666 672.794 15.8373 672.794 25.7805L672.794 529.773C672.794 539.716 664.734 547.777 654.791 547.777L25.7982 547.777C15.855 547.777 7.79437 539.716 7.79437 529.773Z" stroke="#074365" stroke-miterlimit="8" fill="#FF0000" fill-rule="evenodd"/></g></g></g><path d="M596.5 138.504C596.5 128.561 604.561 120.5 614.504 120.5L1243.5 120.5C1253.44 120.5 1261.5 128.561 1261.5 138.504L1261.5 642.496C1261.5 652.439 1253.44 660.5 1243.5 660.5L614.504 660.5C604.561 660.5 596.5 652.439 596.5 642.496Z" stroke="#074365" stroke-width="1.33333" stroke-miterlimit="8" fill="url(#fill30)" fill-rule="evenodd"/><g><g><g><path d="M37.2619 6.70833 8.73808 6.70833 5.76725 17.6031 5.75 20.6042C5.75139 21.8213 6.51911 22.9057 7.66667 23.3115L7.66667 39.2917 38.3333 39.2917 38.3333 23.3115C39.4809 22.9057 40.2486 21.8213 40.25 20.6042L40.25 17.7292ZM26.8333 17.686 25.9229 7.66667 30.2833 7.66667 32.5833 17.7828 32.5833 19.6937C32.5817 21.2544 31.3169 22.5193 29.7562 22.5208L29.6604 22.5208C28.0997 22.5193 26.8349 21.2544 26.8333 19.6937L26.8333 17.7292ZM25.875 19.6937C25.8734 21.2544 24.6086 22.5193 23.0479 22.5208L22.9521 22.5208C21.3914 22.5193 20.1266 21.2544 20.125 19.6937L20.125 17.7517 21.0416 7.66667 24.9584 7.66667 25.875 17.7292ZM20.0795 7.66667 19.1667 17.7292 19.1667 19.6937C19.1651 21.2544 17.9003 22.5193 16.3396 22.5208L16.2437 22.5208C14.6831 22.5193 13.4182 21.2544 13.4167 19.6937L13.4167 17.7828 15.7167 7.66667ZM12.4583 17.7292 12.4583 19.6937C12.4568 21.2544 11.1919 22.5193 9.63125 22.5208L8.625 22.5208C7.56647 22.5208 6.70833 21.6627 6.70833 20.6042L6.70833 17.7934 9.47025 7.66667 14.7329 7.66667 12.4703 17.6228ZM24.9167 38.3333 24.9167 27.3125 33.0625 27.3125 33.0625 38.3333ZM37.375 38.3333 34.0208 38.3333 34.0208 26.3542 23.9583 26.3542 23.9583 38.3333 8.625 38.3333 8.625 23.4792 9.63125 23.4792C11.0049 23.4782 12.2703 22.7331 12.9375 21.5323 13.6047 22.7331 14.8701 23.4782 16.2437 23.4792L16.3396 23.4792C17.7133 23.4782 18.9786 22.7331 19.6458 21.5323 20.313 22.7331 21.5784 23.4782 22.9521 23.4792L23.0479 23.4792C24.4216 23.4782 25.687 22.7331 26.3542 21.5323 27.0214 22.7331 28.2867 23.4782 29.6604 23.4792L29.7562 23.4792C31.1299 23.4782 32.3953 22.7331 33.0625 21.5323 33.7297 22.7331 34.9951 23.4782 36.3688 23.4792L37.375 23.4792ZM39.2917 20.6042C39.2917 21.6627 38.4335 22.5208 37.375 22.5208L36.3688 22.5208C34.8081 22.5193 33.5432 21.2544 33.5417 19.6937L33.5417 17.7292 31.2671 7.66667 36.5298 7.66667 39.2917 17.7934Z" fill="#FFFFFF" transform="matrix(1 0 0 1.02174 26 34)"/><path d="M11.9792 34.5 20.125 34.5 20.125 26.3542 11.9792 26.3542ZM12.9375 27.3125 19.1667 27.3125 19.1667 33.5417 12.9375 33.5417Z" fill="#FFFFFF" transform="matrix(1 0 0 1.02174 26 34)"/></g></g></g><g><g><g><path d="M31.1667 13.8417C30.0667 13.8417 29.15 12.925 29.1958 11.7792 29.1958 10.6792 30.1125 9.7625 31.2125 9.7625 32.3125 9.7625 33.2292 10.6792 33.2292 11.7792 33.2292 12.3292 33 12.8333 32.6333 13.2 32.2208 13.6125 31.7167 13.8417 31.1667 13.8417ZM29.1958 7.47083C28.1875 7.8375 27.4083 8.61667 26.9042 9.53333 26.2625 10.7708 26.1708 12.1917 26.675 13.475L28.875 18.2417 30.3417 21.2667C30.4792 21.5875 30.8 21.7708 31.1667 21.7708 31.5333 21.7708 31.8542 21.5875 31.9917 21.2667L33.4583 18.2417 35.6583 13.5208C35.8875 12.9708 35.9792 12.375 35.9792 11.7792 35.9792 8.57083 32.6792 6.14167 29.1958 7.47083Z" fill="#FFFFFF" transform="matrix(1 0 0 1.11364 215 34)"/><path d="M21.0833 33.3667 13.75 29.7 13.75 14.7583 21.0833 18.425 21.0833 33.3667ZM11.9167 29.7 6.41667 32.45 6.41667 17.5083 11.9167 14.7583 11.9167 29.7ZM37.3083 14.3 37.3083 14.3 36.1625 16.775 37.5833 17.5083 37.5833 32.45 32.0833 29.7 32.0833 23.6042 30.25 23.6042 30.25 29.7 22.9167 33.3667 22.9167 18.425 26.1708 16.775 25.025 14.3 22 15.8125 12.8333 11.2292 3.66667 15.8125 3.66667 36.8958 12.8333 32.3125 22 36.8958 31.1667 32.3125 40.3333 36.8958 40.3333 15.8125 37.3083 14.3Z" fill="#FFFFFF" transform="matrix(1 0 0 1.11364 215 34)"/></g></g></g><g><g><g><path d="M439 76 473 76 473 42 439 42ZM440 43 472 43 472 47 440 47ZM440 48 472 48 472 75 440 75Z" fill="#FFFFFF"/><path d="M448 56 443 56 443 72 459 72 459 67 469 67 469 51 448 51ZM448 71 444 71 444 67 448 67ZM448 66 444 66 444 62 448 62ZM448 61 444 61 444 57 448 57ZM464 52 468 52 468 56 464 56ZM464 57 468 57 468 61 464 61ZM464 62 468 62 468 66 464 66ZM459 52 463 52 463 56 459 56ZM459 57 463 57 463 61 459 61ZM459 62 463 62 463 66 459 66ZM454 52 458 52 458 56 454 56ZM454 57 458 57 458 61 454 61ZM454 62 458 62 458 66 454 66ZM454 67 458 67 458 71 454 71ZM449 52 453 52 453 56 449 56ZM449 57 453 57 453 61 449 61ZM449 62 453 62 453 66 449 66ZM449 67 453 67 453 71 449 71Z" fill="#FFFFFF"/></g></g></g><g><g><g><path d="M661.565 61.3125C660.192 60.1425 658.409 59.5941 656.719 59.0659L656.719 49.2428C658.36 49.3987 659.893 50.128 661.049 51.3025L662.999 49.4338C661.331 47.7362 659.094 46.7135 656.719 46.5616L656.719 43.0312 654.281 43.0312 654.281 46.7159C653.447 46.8784 652.641 47.166 651.893 47.5691 648.813 49.2469 647.241 53.1875 648.504 56.5066 649.483 59.0659 651.844 60.2075 654.281 61.0647L654.281 71.7003C652.392 71.4688 650.824 70.3841 649.524 69.0312L647.574 70.8959C648.503 71.9495 649.61 72.8311 650.844 73.5 651.924 74.0134 653.089 74.3206 654.281 74.4059L654.281 77.9688 656.719 77.9688 656.719 74.3125C659.514 73.8453 662.081 72.1269 663.186 69.4375 664.291 66.7481 663.889 63.2991 661.565 61.3125ZM652.25 57.1403C650.016 55.2553 650.56 51.6072 652.928 50.0959 653.348 49.8267 653.804 49.6175 654.281 49.4744L654.281 58.2859C653.546 58.0184 652.859 57.6313 652.25 57.1403ZM659.599 70.0672C658.806 70.8424 657.806 71.3715 656.719 71.5906L656.719 61.8853C658.344 62.4419 660.208 63.1488 660.871 64.8794 661.533 66.61 660.867 68.7753 659.599 70.0672Z" fill="#FFFFFF"/></g></g></g><g><g><g><path d="M880.532 62.875C879.053 61.615 877.133 61.0244 875.312 60.4556L875.312 49.8769C877.08 50.0448 878.731 50.8302 879.976 52.095L882.076 50.0825C880.279 48.2543 877.871 47.153 875.312 46.9894L875.312 43.1875 872.688 43.1875 872.688 47.1556C871.789 47.3306 870.921 47.6403 870.115 48.0744 866.799 49.8812 865.106 54.125 866.466 57.6994 867.521 60.4556 870.062 61.685 872.688 62.6081L872.688 74.0619C870.653 73.8125 868.964 72.6444 867.564 71.1875L865.464 73.1956C866.464 74.3302 867.656 75.2796 868.986 76 870.148 76.5529 871.404 76.8837 872.688 76.9756L872.688 80.8125 875.312 80.8125 875.312 76.875C878.323 76.3719 881.088 74.5213 882.278 71.625 883.468 68.7288 883.034 65.0144 880.532 62.875ZM870.5 58.3819C868.094 56.3519 868.68 52.4231 871.231 50.7956 871.683 50.5057 872.173 50.2804 872.688 50.1263L872.688 59.6156C871.895 59.3275 871.156 58.9107 870.5 58.3819ZM878.414 72.3031C877.56 73.1379 876.483 73.7077 875.312 73.9438L875.312 63.4919C877.062 64.0912 879.071 64.8525 879.784 66.7162 880.497 68.58 879.779 70.9119 878.414 72.3031Z" fill="#FFFFFF"/></g></g></g><g><g><g><path d="M1088 60.8711 1088 74.875 1088 74.875 1088 74.8851 1094.12 74.8851 1094.12 60.8811 1094.12 60.8811 1094.12 60.8711ZM1088.88 61.7561 1093.25 61.7561 1093.25 74 1088.88 74Z" fill="#FFFFFF"/><path d="M1095.88 52.9939 1095.88 74.875 1095.88 74.875 1095.88 74.8851 1102 74.8851 1102 53.0039 1102 53.0039 1102 52.9939ZM1096.75 53.8789 1101.12 53.8789 1101.12 74 1096.75 74Z" fill="#FFFFFF"/><path d="M1109.88 45.1167 1103.75 45.1167 1103.75 74.875 1103.75 74.875 1103.75 74.8851 1109.88 74.8851 1109.88 45.125 1109.88 45.125ZM1104.62 46 1109 46 1109 74 1104.62 74Z" fill="#FFFFFF"/><path d="M1080.12 68.75 1080.12 74.875 1080.12 74.875 1080.12 74.8851 1086.25 74.8851 1086.25 68.7601 1086.25 68.7601 1086.25 68.75ZM1081 69.6351 1085.38 69.6351 1085.38 74 1081 74Z" fill="#FFFFFF"/></g></g></g><g clip-path="url(#clip31)"><g filter="url(#fx9)" transform="translate(14 -4)"><g><path d="M11.9615 7.77666 1249.79 7.77666 1249.79 28.6093C1249.79 30.9109 1247.93 32.7767 1245.63 32.7767L7.79436 32.7767 7.79436 11.944C7.79436 9.64244 9.66006 7.77666 11.9615 7.77666Z" stroke="#074365" stroke-miterlimit="8" fill="#FF0000" fill-rule="evenodd"/></g></g><g clip-path="url(#clip32)" filter="url(#fx10)" transform="translate(460 -6)"><g><path d="M13.6758-7.80469C13.6758-6.49219 13.5078-5.3457 13.1719-4.36523 12.8359-3.38477 12.3457-2.57227 11.7012-1.92773 11.0566-1.2832 10.2656-0.800781 9.32812-0.480469 8.39062-0.160156 7.27344 0 5.97656 0L2.76562 0C2.58594 0 2.41602-0.0605469 2.25586-0.181641 2.0957-0.302734 2.01562-0.515625 2.01562-0.820312L2.01562-14.3438C2.01562-14.6484 2.0957-14.8613 2.25586-14.9824 2.41602-15.1035 2.58594-15.1641 2.76562-15.1641L6.19922-15.1641C7.51172-15.1641 8.62109-14.9941 9.52734-14.6543 10.4336-14.3145 11.1934-13.8262 11.8066-13.1895 12.4199-12.5527 12.8848-11.7812 13.2012-10.875 13.5176-9.96875 13.6758-8.94531 13.6758-7.80469ZM11.5547-7.72266C11.5547-8.54297 11.4531-9.30664 11.25-10.0137 11.0469-10.7207 10.7285-11.332 10.2949-11.8477 9.86133-12.3633 9.3125-12.7656 8.64844-13.0547 7.98437-13.3437 7.12891-13.4883 6.08203-13.4883L4.03125-13.4883 4.03125-1.6875 6.10547-1.6875C7.07422-1.6875 7.89062-1.80859 8.55469-2.05078 9.21875-2.29297 9.77344-2.66406 10.2188-3.16406 10.6641-3.66406 10.998-4.29102 11.2207-5.04492 11.4434-5.79883 11.5547-6.69141 11.5547-7.72266ZM24.5716-0.28125C24.5716-0.1875 24.5404-0.117187 24.4779-0.0703125 24.4154-0.0234375 24.3294 0.0117188 24.2201 0.0351562 24.1107 0.0585937 23.9505 0.0703125 23.7396 0.0703125 23.5365 0.0703125 23.3743 0.0585937 23.2533 0.0351562 23.1322 0.0117188 23.0443-0.0234375 22.9896-0.0703125 22.9349-0.117187 22.9076-0.1875 22.9076-0.28125L22.9076-1.33594C22.4466-0.84375 21.9329-0.460937 21.3665-0.1875 20.8001 0.0859375 20.2005 0.222656 19.5677 0.222656 19.013 0.222656 18.5111 0.150391 18.0618 0.00585938 17.6126-0.138672 17.2298-0.347656 16.9134-0.621094 16.597-0.894531 16.3509-1.23047 16.1751-1.62891 15.9993-2.02734 15.9115-2.48047 15.9115-2.98828 15.9115-3.58203 16.0326-4.09766 16.2747-4.53516 16.5169-4.97266 16.8646-5.33594 17.3177-5.625 17.7708-5.91406 18.3255-6.13086 18.9818-6.27539 19.638-6.41992 20.3763-6.49219 21.1966-6.49219L22.6497-6.49219 22.6497-7.3125C22.6497-7.71875 22.6068-8.07812 22.5208-8.39062 22.4349-8.70312 22.2962-8.96289 22.1048-9.16992 21.9134-9.37695 21.6654-9.5332 21.3607-9.63867 21.056-9.74414 20.681-9.79688 20.2357-9.79688 19.7591-9.79688 19.3314-9.74023 18.9525-9.62695 18.5736-9.51367 18.2415-9.38867 17.9564-9.25195 17.6712-9.11523 17.4329-8.99023 17.2415-8.87695 17.0501-8.76367 16.9076-8.70703 16.8138-8.70703 16.7513-8.70703 16.6966-8.72266 16.6497-8.75391 16.6029-8.78516 16.5618-8.83203 16.5267-8.89453 16.4915-8.95703 16.4661-9.03711 16.4505-9.13477 16.4349-9.23242 16.4271-9.33984 16.4271-9.45703 16.4271-9.65234 16.4408-9.80664 16.4681-9.91992 16.4954-10.0332 16.5618-10.1406 16.6673-10.2422 16.7728-10.3438 16.9544-10.4629 17.2122-10.5996 17.4701-10.7363 17.7669-10.8613 18.1029-10.9746 18.4388-11.0879 18.806-11.1816 19.2044-11.2559 19.6029-11.3301 20.0052-11.3672 20.4115-11.3672 21.1693-11.3672 21.8138-11.2812 22.3451-11.1094 22.8763-10.9375 23.306-10.6855 23.6341-10.3535 23.9622-10.0215 24.2005-9.60938 24.349-9.11719 24.4974-8.625 24.5716-8.05078 24.5716-7.39453ZM22.6497-5.09766 20.9974-5.09766C20.4661-5.09766 20.0052-5.05273 19.6146-4.96289 19.224-4.87305 18.8997-4.74023 18.6419-4.56445 18.3841-4.38867 18.1947-4.17773 18.0736-3.93164 17.9525-3.68555 17.8919-3.40234 17.8919-3.08203 17.8919-2.53516 18.0658-2.09961 18.4134-1.77539 18.7611-1.45117 19.2474-1.28906 19.8724-1.28906 20.3802-1.28906 20.8509-1.41797 21.2845-1.67578 21.7181-1.93359 22.1732-2.32812 22.6497-2.85938ZM34.7474-3.16406C34.7474-2.625 34.6478-2.14453 34.4486-1.72266 34.2494-1.30078 33.9661-0.945312 33.599-0.65625 33.2318-0.367188 32.7943-0.148437 32.2865 0 31.7786 0.148437 31.2201 0.222656 30.6107 0.222656 30.2357 0.222656 29.8783 0.193359 29.5384 0.134766 29.1986 0.0761719 28.8939 0.00195312 28.6243-0.0878906 28.3548-0.177734 28.1263-0.271484 27.9388-0.369141 27.7513-0.466797 27.6146-0.554688 27.5286-0.632812 27.4427-0.710938 27.3802-0.820312 27.3411-0.960938 27.3021-1.10156 27.2826-1.29297 27.2826-1.53516 27.2826-1.68359 27.2904-1.80859 27.306-1.91016 27.3216-2.01172 27.3411-2.09375 27.3646-2.15625 27.388-2.21875 27.4212-2.26367 27.4642-2.29102 27.5072-2.31836 27.556-2.33203 27.6107-2.33203 27.6966-2.33203 27.8236-2.2793 27.9915-2.17383 28.1595-2.06836 28.3665-1.95312 28.6126-1.82812 28.8587-1.70312 29.1497-1.58789 29.4857-1.48242 29.8216-1.37695 30.2083-1.32422 30.6458-1.32422 30.974-1.32422 31.2708-1.35938 31.5365-1.42969 31.8021-1.5 32.0326-1.60352 32.2279-1.74023 32.4232-1.87695 32.5736-2.05078 32.679-2.26172 32.7845-2.47266 32.8372-2.72266 32.8372-3.01172 32.8372-3.30859 32.7611-3.55859 32.6087-3.76172 32.4564-3.96484 32.2552-4.14453 32.0052-4.30078 31.7552-4.45703 31.474-4.5957 31.1615-4.7168 30.849-4.83789 30.5267-4.96484 30.1947-5.09766 29.8626-5.23047 29.5384-5.38086 29.222-5.54883 28.9056-5.7168 28.6224-5.92188 28.3724-6.16406 28.1224-6.40625 27.9212-6.69531 27.7689-7.03125 27.6165-7.36719 27.5404-7.76953 27.5404-8.23828 27.5404-8.65234 27.6204-9.04883 27.7806-9.42773 27.9408-9.80664 28.181-10.1387 28.5013-10.4238 28.8216-10.709 29.222-10.9375 29.7025-11.1094 30.1829-11.2812 30.7435-11.3672 31.3841-11.3672 31.6654-11.3672 31.9466-11.3438 32.2279-11.2969 32.5091-11.25 32.763-11.1914 32.9896-11.1211 33.2161-11.0508 33.4095-10.9746 33.5697-10.8926 33.7298-10.8105 33.8509-10.7383 33.9329-10.6758 34.015-10.6133 34.0697-10.5586 34.097-10.5117 34.1244-10.4648 34.1439-10.4121 34.1556-10.3535 34.1673-10.2949 34.179-10.2227 34.1908-10.1367 34.2025-10.0508 34.2083-9.94531 34.2083-9.82031 34.2083-9.6875 34.2025-9.57227 34.1908-9.47461 34.179-9.37695 34.1595-9.29688 34.1322-9.23438 34.1048-9.17188 34.0716-9.12695 34.0326-9.09961 33.9935-9.07227 33.9505-9.05859 33.9036-9.05859 33.8333-9.05859 33.7318-9.10156 33.599-9.1875 33.4661-9.27344 33.2943-9.36523 33.0833-9.46289 32.8724-9.56055 32.6244-9.65234 32.3392-9.73828 32.054-9.82422 31.7279-9.86719 31.3607-9.86719 31.0326-9.86719 30.7435-9.83008 30.4935-9.75586 30.2435-9.68164 30.0384-9.57617 29.8783-9.43945 29.7181-9.30273 29.597-9.14062 29.515-8.95312 29.4329-8.76562 29.3919-8.5625 29.3919-8.34375 29.3919-8.03906 29.4701-7.7832 29.6263-7.57617 29.7826-7.36914 29.9857-7.1875 30.2357-7.03125 30.4857-6.875 30.7708-6.73437 31.0911-6.60938 31.4115-6.48437 31.7376-6.35547 32.0697-6.22266 32.4017-6.08984 32.7298-5.94141 33.054-5.77734 33.3783-5.61328 33.6654-5.41406 33.9154-5.17969 34.1654-4.94531 34.3665-4.66406 34.5189-4.33594 34.6712-4.00781 34.7474-3.61719 34.7474-3.16406ZM46.5417-0.292969C46.5417-0.230469 46.526-0.177734 46.4948-0.134766 46.4635-0.0917969 46.4128-0.0546875 46.3424-0.0234375 46.2721 0.0078125 46.1745 0.03125 46.0495 0.046875 45.9245 0.0625 45.7682 0.0703125 45.5807 0.0703125 45.3854 0.0703125 45.2253 0.0625 45.1003 0.046875 44.9753 0.03125 44.8776 0.0078125 44.8073-0.0234375 44.737-0.0546875 44.6862-0.0917969 44.6549-0.134766 44.6237-0.177734 44.6081-0.230469 44.6081-0.292969L44.6081-6.46875C44.6081-7.07031 44.5612-7.55469 44.4674-7.92188 44.3737-8.28906 44.237-8.60547 44.0573-8.87109 43.8776-9.13672 43.6452-9.33984 43.36-9.48047 43.0749-9.62109 42.7448-9.69141 42.3698-9.69141 41.8854-9.69141 41.401-9.51953 40.9167-9.17578 40.4323-8.83203 39.9245-8.32812 39.3932-7.66406L39.3932-0.292969C39.3932-0.230469 39.3776-0.177734 39.3464-0.134766 39.3151-0.0917969 39.2643-0.0546875 39.194-0.0234375 39.1237 0.0078125 39.026 0.03125 38.901 0.046875 38.776 0.0625 38.6159 0.0703125 38.4206 0.0703125 38.2331 0.0703125 38.0768 0.0625 37.9518 0.046875 37.8268 0.03125 37.7272 0.0078125 37.653-0.0234375 37.5788-0.0546875 37.528-0.0917969 37.5007-0.134766 37.4733-0.177734 37.4596-0.230469 37.4596-0.292969L37.4596-15.9492C37.4596-16.0117 37.4733-16.0664 37.5007-16.1133 37.528-16.1602 37.5788-16.1992 37.653-16.2305 37.7272-16.2617 37.8268-16.2852 37.9518-16.3008 38.0768-16.3164 38.2331-16.3242 38.4206-16.3242 38.6159-16.3242 38.776-16.3164 38.901-16.3008 39.026-16.2852 39.1237-16.2617 39.194-16.2305 39.2643-16.1992 39.3151-16.1602 39.3464-16.1133 39.3776-16.0664 39.3932-16.0117 39.3932-15.9492L39.3932-9.63281C39.9479-10.2188 40.5065-10.6543 41.069-10.9395 41.6315-11.2246 42.1979-11.3672 42.7682-11.3672 43.4714-11.3672 44.0631-11.248 44.5436-11.0098 45.0241-10.7715 45.4128-10.4531 45.7096-10.0547 46.0065-9.65625 46.2194-9.18945 46.3483-8.6543 46.4772-8.11914 46.5417-7.47266 46.5417-6.71484ZM59.8294-5.70703C59.8294-4.79297 59.7298-3.9707 59.5306-3.24023 59.3314-2.50977 59.0384-1.88672 58.6517-1.37109 58.265-0.855469 57.7904-0.460937 57.2279-0.1875 56.6654 0.0859375 56.0208 0.222656 55.2943 0.222656 54.9583 0.222656 54.6478 0.189453 54.3626 0.123047 54.0775 0.0566406 53.7982-0.0507812 53.5247-0.199219 53.2513-0.347656 52.9779-0.535156 52.7044-0.761719 52.431-0.988281 52.1419-1.26172 51.8372-1.58203L51.8372-0.292969C51.8372-0.230469 51.8216-0.175781 51.7904-0.128906 51.7591-0.0820312 51.7083-0.0449219 51.638-0.0175781 51.5677 0.00976562 51.4798 0.03125 51.3744 0.046875 51.2689 0.0625 51.1341 0.0703125 50.9701 0.0703125 50.8138 0.0703125 50.681 0.0625 50.5716 0.046875 50.4622 0.03125 50.3724 0.00976562 50.3021-0.0175781 50.2318-0.0449219 50.1849-0.0820312 50.1615-0.128906 50.138-0.175781 50.1263-0.230469 50.1263-0.292969L50.1263-15.9492C50.1263-16.0117 50.14-16.0664 50.1673-16.1133 50.1947-16.1602 50.2454-16.1992 50.3197-16.2305 50.3939-16.2617 50.4935-16.2852 50.6185-16.3008 50.7435-16.3164 50.8997-16.3242 51.0872-16.3242 51.2826-16.3242 51.4427-16.3164 51.5677-16.3008 51.6927-16.2852 51.7904-16.2617 51.8607-16.2305 51.931-16.1992 51.9818-16.1602 52.013-16.1133 52.0443-16.0664 52.0599-16.0117 52.0599-15.9492L52.0599-9.63281C52.3724-9.95312 52.6751-10.2227 52.9681-10.4414 53.2611-10.6602 53.5482-10.8379 53.8294-10.9746 54.1107-11.1113 54.3919-11.2109 54.6732-11.2734 54.9544-11.3359 55.2513-11.3672 55.5638-11.3672 56.3294-11.3672 56.9837-11.2148 57.5267-10.9102 58.0697-10.6055 58.5111-10.1973 58.8509-9.68555 59.1908-9.17383 59.4388-8.57422 59.5951-7.88672 59.7513-7.19922 59.8294-6.47266 59.8294-5.70703ZM57.8255-5.48438C57.8255-6.02344 57.7843-6.54687 57.7017-7.05469 57.6192-7.5625 57.4758-8.01172 57.2714-8.40234 57.0669-8.79297 56.7958-9.10742 56.4578-9.3457 56.1199-9.58398 55.6993-9.70312 55.1961-9.70312 54.9447-9.70312 54.6971-9.66797 54.4535-9.59766 54.2098-9.52734 53.9622-9.41016 53.7106-9.24609 53.459-9.08203 53.1976-8.87109 52.9264-8.61328 52.6553-8.35547 52.3664-8.03125 52.0599-7.64062L52.0599-3.43359C52.5944-2.78516 53.1054-2.29102 53.5927-1.95117 54.08-1.61133 54.587-1.44141 55.1137-1.44141 55.601-1.44141 56.0176-1.55859 56.3635-1.79297 56.7094-2.02734 56.9904-2.33789 57.2065-2.72461 57.4227-3.11133 57.5799-3.54492 57.6781-4.02539 57.7764-4.50586 57.8255-4.99219 57.8255-5.48438ZM72.6016-5.68359C72.6016-4.82422 72.4883-4.0332 72.2617-3.31055 72.0352-2.58789 71.6973-1.96484 71.248-1.44141 70.7988-0.917969 70.2363-0.509766 69.5605-0.216797 68.8848 0.0761719 68.1016 0.222656 67.2109 0.222656 66.3438 0.222656 65.5879 0.09375 64.9434-0.164062 64.2988-0.421875 63.7617-0.796875 63.332-1.28906 62.9023-1.78125 62.582-2.37891 62.3711-3.08203 62.1602-3.78516 62.0547-4.58203 62.0547-5.47266 62.0547-6.33203 62.166-7.12305 62.3887-7.8457 62.6113-8.56836 62.9473-9.19141 63.3965-9.71484 63.8457-10.2383 64.4062-10.6445 65.0781-10.9336 65.75-11.2227 66.5352-11.3672 67.4336-11.3672 68.3008-11.3672 69.0566-11.2383 69.7012-10.9805 70.3457-10.7227 70.8828-10.3477 71.3125-9.85547 71.7422-9.36328 72.0645-8.76562 72.2793-8.0625 72.4941-7.35937 72.6016-6.56641 72.6016-5.68359ZM70.5977-5.55469C70.5977-6.125 70.5444-6.66406 70.438-7.17188 70.3315-7.67969 70.1561-8.125 69.9117-8.50781 69.6674-8.89062 69.3363-9.19336 68.9185-9.41602 68.5007-9.63867 67.9804-9.75 67.3576-9.75 66.7822-9.75 66.2875-9.64844 65.8736-9.44531 65.4597-9.24219 65.1188-8.95508 64.8508-8.58398 64.5828-8.21289 64.3838-7.77344 64.2537-7.26562 64.1236-6.75781 64.0586-6.20312 64.0586-5.60156 64.0586-5.02344 64.1118-4.48047 64.2183-3.97266 64.3247-3.46484 64.5021-3.02148 64.7504-2.64258 64.9987-2.26367 65.3317-1.96289 65.7495-1.74023 66.1673-1.51758 66.6876-1.40625 67.3104-1.40625 67.878-1.40625 68.3707-1.50781 68.7885-1.71094 69.2063-1.91406 69.5492-2.19922 69.8172-2.56641 70.0852-2.93359 70.2823-3.37109 70.4084-3.87891 70.5346-4.38672 70.5977-4.94531 70.5977-5.55469ZM83.405-0.28125C83.405-0.1875 83.3737-0.117187 83.3112-0.0703125 83.2487-0.0234375 83.1628 0.0117188 83.0534 0.0351562 82.944 0.0585937 82.7839 0.0703125 82.5729 0.0703125 82.3698 0.0703125 82.2077 0.0585937 82.0866 0.0351562 81.9655 0.0117188 81.8776-0.0234375 81.8229-0.0703125 81.7682-0.117187 81.7409-0.1875 81.7409-0.28125L81.7409-1.33594C81.28-0.84375 80.7663-0.460937 80.1999-0.1875 79.6335 0.0859375 79.0339 0.222656 78.401 0.222656 77.8464 0.222656 77.3444 0.150391 76.8952 0.00585938 76.446-0.138672 76.0632-0.347656 75.7467-0.621094 75.4303-0.894531 75.1842-1.23047 75.0085-1.62891 74.8327-2.02734 74.7448-2.48047 74.7448-2.98828 74.7448-3.58203 74.8659-4.09766 75.1081-4.53516 75.3503-4.97266 75.6979-5.33594 76.151-5.625 76.6042-5.91406 77.1589-6.13086 77.8151-6.27539 78.4714-6.41992 79.2096-6.49219 80.03-6.49219L81.4831-6.49219 81.4831-7.3125C81.4831-7.71875 81.4401-8.07812 81.3542-8.39062 81.2682-8.70312 81.1296-8.96289 80.9382-9.16992 80.7467-9.37695 80.4987-9.5332 80.194-9.63867 79.8893-9.74414 79.5143-9.79688 79.069-9.79688 78.5925-9.79688 78.1647-9.74023 77.7858-9.62695 77.4069-9.51367 77.0749-9.38867 76.7897-9.25195 76.5046-9.11523 76.2663-8.99023 76.0749-8.87695 75.8835-8.76367 75.7409-8.70703 75.6471-8.70703 75.5846-8.70703 75.53-8.72266 75.4831-8.75391 75.4362-8.78516 75.3952-8.83203 75.36-8.89453 75.3249-8.95703 75.2995-9.03711 75.2839-9.13477 75.2682-9.23242 75.2604-9.33984 75.2604-9.45703 75.2604-9.65234 75.2741-9.80664 75.3014-9.91992 75.3288-10.0332 75.3952-10.1406 75.5007-10.2422 75.6061-10.3438 75.7878-10.4629 76.0456-10.5996 76.3034-10.7363 76.6003-10.8613 76.9362-10.9746 77.2721-11.0879 77.6393-11.1816 78.0378-11.2559 78.4362-11.3301 78.8385-11.3672 79.2448-11.3672 80.0026-11.3672 80.6471-11.2812 81.1784-11.1094 81.7096-10.9375 82.1393-10.6855 82.4675-10.3535 82.7956-10.0215 83.0339-9.60938 83.1823-9.11719 83.3307-8.625 83.405-8.05078 83.405-7.39453ZM81.4831-5.09766 79.8307-5.09766C79.2995-5.09766 78.8385-5.05273 78.4479-4.96289 78.0573-4.87305 77.7331-4.74023 77.4753-4.56445 77.2175-4.38867 77.028-4.17773 76.9069-3.93164 76.7858-3.68555 76.7253-3.40234 76.7253-3.08203 76.7253-2.53516 76.8991-2.09961 77.2467-1.77539 77.5944-1.45117 78.0807-1.28906 78.7057-1.28906 79.2135-1.28906 79.6842-1.41797 80.1178-1.67578 80.5514-1.93359 81.0065-2.32812 81.4831-2.85938ZM93.1237-10.1484C93.1237-9.97656 93.1198-9.83203 93.112-9.71484 93.1042-9.59766 93.0885-9.50586 93.0651-9.43945 93.0417-9.37305 93.0124-9.32227 92.9772-9.28711 92.9421-9.25195 92.8932-9.23438 92.8307-9.23438 92.7682-9.23438 92.6921-9.25195 92.6022-9.28711 92.5124-9.32227 92.4108-9.35742 92.2975-9.39258 92.1842-9.42773 92.0573-9.46094 91.9167-9.49219 91.776-9.52344 91.6237-9.53906 91.4596-9.53906 91.2643-9.53906 91.0729-9.5 90.8854-9.42188 90.6979-9.34375 90.5007-9.21484 90.2936-9.03516 90.0866-8.85547 89.8698-8.61719 89.6432-8.32031 89.4167-8.02344 89.1667-7.66016 88.8932-7.23047L88.8932-0.292969C88.8932-0.230469 88.8776-0.177734 88.8464-0.134766 88.8151-0.0917969 88.7643-0.0546875 88.694-0.0234375 88.6237 0.0078125 88.526 0.03125 88.401 0.046875 88.276 0.0625 88.1159 0.0703125 87.9206 0.0703125 87.7331 0.0703125 87.5768 0.0625 87.4518 0.046875 87.3268 0.03125 87.2272 0.0078125 87.153-0.0234375 87.0788-0.0546875 87.028-0.0917969 87.0007-0.134766 86.9733-0.177734 86.9596-0.230469 86.9596-0.292969L86.9596-10.8398C86.9596-10.9023 86.9714-10.9551 86.9948-10.998 87.0182-11.041 87.0651-11.0801 87.1354-11.1152 87.2057-11.1504 87.2956-11.1738 87.405-11.1855 87.5143-11.1973 87.6589-11.2031 87.8385-11.2031 88.0104-11.2031 88.153-11.1973 88.2663-11.1855 88.3796-11.1738 88.4675-11.1504 88.53-11.1152 88.5925-11.0801 88.6374-11.041 88.6647-10.998 88.6921-10.9551 88.7057-10.9023 88.7057-10.8398L88.7057-9.30469C88.9948-9.72656 89.2663-10.0703 89.5202-10.3359 89.7741-10.6016 90.0143-10.8105 90.2409-10.9629 90.4675-11.1152 90.6921-11.2207 90.9147-11.2793 91.1374-11.3379 91.362-11.3672 91.5885-11.3672 91.6901-11.3672 91.8053-11.3613 91.9342-11.3496 92.0632-11.3379 92.1979-11.3164 92.3385-11.2852 92.4792-11.2539 92.6061-11.2188 92.7194-11.1797 92.8327-11.1406 92.9128-11.1016 92.9596-11.0625 93.0065-11.0234 93.0378-10.9863 93.0534-10.9512 93.069-10.916 93.0827-10.8711 93.0944-10.8164 93.1061-10.7617 93.1139-10.6816 93.1178-10.5762 93.1217-10.4707 93.1237-10.3281 93.1237-10.1484ZM104.001-0.292969C104.001-0.230469 103.988-0.175781 103.96-0.128906 103.933-0.0820312 103.886-0.0449219 103.82-0.0175781 103.753 0.00976562 103.666 0.03125 103.556 0.046875 103.447 0.0625 103.314 0.0703125 103.158 0.0703125 102.994 0.0703125 102.857 0.0625 102.748 0.046875 102.638 0.03125 102.548 0.00976562 102.478-0.0175781 102.408-0.0449219 102.357-0.0820312 102.326-0.128906 102.294-0.175781 102.279-0.230469 102.279-0.292969L102.279-1.6875C101.724-1.08594 101.148-0.617187 100.55-0.28125 99.9526 0.0546875 99.2983 0.222656 98.5874 0.222656 97.814 0.222656 97.1538 0.0722656 96.6069-0.228516 96.0601-0.529297 95.6167-0.935547 95.2769-1.44727 94.937-1.95898 94.689-2.56055 94.5327-3.25195 94.3765-3.94336 94.2983-4.67188 94.2983-5.4375 94.2983-6.34375 94.396-7.16211 94.5913-7.89258 94.7866-8.62305 95.0757-9.24609 95.4585-9.76172 95.8413-10.2773 96.3159-10.6738 96.8823-10.9512 97.4487-11.2285 98.103-11.3672 98.8452-11.3672 99.4624-11.3672 100.027-11.2324 100.539-10.9629 101.05-10.6934 101.556-10.2969 102.056-9.77344L102.056-15.9023C102.056-15.957 102.07-16.0098 102.097-16.0605 102.125-16.1113 102.177-16.1504 102.255-16.1777 102.333-16.2051 102.433-16.2285 102.554-16.248 102.675-16.2676 102.83-16.2773 103.017-16.2773 103.212-16.2773 103.373-16.2676 103.498-16.248 103.623-16.2285 103.72-16.2051 103.791-16.1777 103.861-16.1504 103.914-16.1113 103.949-16.0605 103.984-16.0098 104.001-15.957 104.001-15.9023ZM102.056-7.71094C101.533-8.35938 101.027-8.85352 100.539-9.19336 100.05-9.5332 99.5405-9.70312 99.0093-9.70312 98.5171-9.70312 98.0991-9.58594 97.7554-9.35156 97.4116-9.11719 97.1323-8.80859 96.9175-8.42578 96.7026-8.04297 96.5464-7.60937 96.4487-7.125 96.3511-6.64062 96.3022-6.14844 96.3022-5.64844 96.3022-5.11719 96.3433-4.59766 96.4253-4.08984 96.5073-3.58203 96.6499-3.13086 96.853-2.73633 97.0562-2.3418 97.3257-2.02539 97.6616-1.78711 97.9976-1.54883 98.4194-1.42969 98.9272-1.42969 99.1851-1.42969 99.4331-1.46484 99.6714-1.53516 99.9097-1.60547 100.154-1.72266 100.404-1.88672 100.654-2.05078 100.916-2.26367 101.189-2.52539 101.462-2.78711 101.751-3.10938 102.056-3.49219ZM121.5-4.25391C121.5-3.54297 121.369-2.91016 121.108-2.35547 120.846-1.80078 120.483-1.33008 120.018-0.943359 119.553-0.556641 119.006-0.265625 118.377-0.0703125 117.748 0.125 117.07 0.222656 116.344 0.222656 115.836 0.222656 115.365 0.179687 114.932 0.09375 114.498 0.0078125 114.111-0.0976562 113.772-0.222656 113.432-0.347656 113.147-0.476562 112.916-0.609375 112.686-0.742187 112.526-0.855469 112.436-0.949219 112.346-1.04297 112.279-1.16211 112.236-1.30664 112.194-1.45117 112.172-1.64453 112.172-1.88672 112.172-2.05859 112.18-2.20117 112.195-2.31445 112.211-2.42773 112.235-2.51953 112.266-2.58984 112.297-2.66016 112.336-2.70898 112.383-2.73633 112.43-2.76367 112.485-2.77734 112.547-2.77734 112.656-2.77734 112.811-2.71094 113.01-2.57812 113.209-2.44531 113.465-2.30078 113.778-2.14453 114.09-1.98828 114.467-1.8418 114.908-1.70508 115.35-1.56836 115.86-1.5 116.438-1.5 116.875-1.5 117.276-1.55859 117.639-1.67578 118.002-1.79297 118.315-1.95898 118.576-2.17383 118.838-2.38867 119.039-2.65234 119.18-2.96484 119.32-3.27734 119.391-3.63281 119.391-4.03125 119.391-4.46094 119.293-4.82812 119.098-5.13281 118.902-5.4375 118.645-5.70508 118.324-5.93555 118.004-6.16602 117.639-6.37695 117.229-6.56836 116.819-6.75977 116.399-6.95508 115.969-7.1543 115.539-7.35352 115.121-7.57422 114.715-7.81641 114.309-8.05859 113.945-8.34375 113.625-8.67188 113.305-9 113.045-9.38477 112.846-9.82617 112.647-10.2676 112.547-10.7969 112.547-11.4141 112.547-12.0469 112.662-12.6113 112.893-13.1074 113.123-13.6035 113.444-14.0195 113.854-14.3555 114.264-14.6914 114.752-14.9473 115.319-15.123 115.885-15.2988 116.496-15.3867 117.153-15.3867 117.488-15.3867 117.826-15.3574 118.166-15.2988 118.506-15.2402 118.826-15.1621 119.127-15.0645 119.428-14.9668 119.695-14.8574 119.93-14.7363 120.164-14.6152 120.319-14.5176 120.393-14.4434 120.467-14.3691 120.516-14.3105 120.539-14.2676 120.563-14.2246 120.582-14.1699 120.598-14.1035 120.613-14.0371 120.625-13.957 120.633-13.8633 120.641-13.7695 120.645-13.6484 120.645-13.5 120.645-13.3594 120.639-13.2344 120.627-13.125 120.615-13.0156 120.598-12.9238 120.574-12.8496 120.551-12.7754 120.518-12.7207 120.475-12.6855 120.432-12.6504 120.383-12.6328 120.328-12.6328 120.242-12.6328 120.108-12.6875 119.924-12.7969 119.74-12.9062 119.516-13.0293 119.25-13.166 118.985-13.3027 118.67-13.4277 118.307-13.541 117.944-13.6543 117.535-13.7109 117.082-13.7109 116.66-13.7109 116.293-13.6543 115.981-13.541 115.668-13.4277 115.41-13.2773 115.207-13.0898 115.004-12.9023 114.852-12.6797 114.75-12.4219 114.649-12.1641 114.598-11.8906 114.598-11.6016 114.598-11.1797 114.695-10.8164 114.891-10.5117 115.086-10.207 115.346-9.9375 115.67-9.70312 115.994-9.46875 116.363-9.25391 116.778-9.05859 117.192-8.86328 117.613-8.66602 118.043-8.4668 118.473-8.26758 118.895-8.04883 119.309-7.81055 119.723-7.57227 120.092-7.29102 120.416-6.9668 120.74-6.64258 121.002-6.25977 121.201-5.81836 121.401-5.37695 121.5-4.85547 121.5-4.25391ZM132.5-4.25391C132.5-3.54297 132.369-2.91016 132.108-2.35547 131.846-1.80078 131.483-1.33008 131.018-0.943359 130.553-0.556641 130.006-0.265625 129.377-0.0703125 128.748 0.125 128.07 0.222656 127.344 0.222656 126.836 0.222656 126.365 0.179687 125.932 0.09375 125.498 0.0078125 125.111-0.0976562 124.772-0.222656 124.432-0.347656 124.147-0.476562 123.916-0.609375 123.686-0.742187 123.526-0.855469 123.436-0.949219 123.346-1.04297 123.279-1.16211 123.236-1.30664 123.194-1.45117 123.172-1.64453 123.172-1.88672 123.172-2.05859 123.18-2.20117 123.195-2.31445 123.211-2.42773 123.235-2.51953 123.266-2.58984 123.297-2.66016 123.336-2.70898 123.383-2.73633 123.43-2.76367 123.485-2.77734 123.547-2.77734 123.656-2.77734 123.811-2.71094 124.01-2.57812 124.209-2.44531 124.465-2.30078 124.778-2.14453 125.09-1.98828 125.467-1.8418 125.908-1.70508 126.35-1.56836 126.86-1.5 127.438-1.5 127.875-1.5 128.276-1.55859 128.639-1.67578 129.002-1.79297 129.315-1.95898 129.576-2.17383 129.838-2.38867 130.039-2.65234 130.18-2.96484 130.32-3.27734 130.391-3.63281 130.391-4.03125 130.391-4.46094 130.293-4.82812 130.098-5.13281 129.902-5.4375 129.645-5.70508 129.324-5.93555 129.004-6.16602 128.639-6.37695 128.229-6.56836 127.819-6.75977 127.399-6.95508 126.969-7.1543 126.539-7.35352 126.121-7.57422 125.715-7.81641 125.309-8.05859 124.945-8.34375 124.625-8.67188 124.305-9 124.045-9.38477 123.846-9.82617 123.647-10.2676 123.547-10.7969 123.547-11.4141 123.547-12.0469 123.662-12.6113 123.893-13.1074 124.123-13.6035 124.444-14.0195 124.854-14.3555 125.264-14.6914 125.752-14.9473 126.319-15.123 126.885-15.2988 127.496-15.3867 128.152-15.3867 128.488-15.3867 128.826-15.3574 129.166-15.2988 129.506-15.2402 129.826-15.1621 130.127-15.0645 130.428-14.9668 130.695-14.8574 130.93-14.7363 131.164-14.6152 131.319-14.5176 131.393-14.4434 131.467-14.3691 131.516-14.3105 131.539-14.2676 131.563-14.2246 131.582-14.1699 131.598-14.1035 131.613-14.0371 131.625-13.957 131.633-13.8633 131.641-13.7695 131.645-13.6484 131.645-13.5 131.645-13.3594 131.639-13.2344 131.627-13.125 131.615-13.0156 131.598-12.9238 131.574-12.8496 131.551-12.7754 131.518-12.7207 131.475-12.6855 131.432-12.6504 131.383-12.6328 131.328-12.6328 131.242-12.6328 131.108-12.6875 130.924-12.7969 130.74-12.9062 130.516-13.0293 130.25-13.166 129.985-13.3027 129.67-13.4277 129.307-13.541 128.944-13.6543 128.535-13.7109 128.082-13.7109 127.66-13.7109 127.293-13.6543 126.981-13.541 126.668-13.4277 126.41-13.2773 126.207-13.0898 126.004-12.9023 125.852-12.6797 125.75-12.4219 125.649-12.1641 125.598-11.8906 125.598-11.6016 125.598-11.1797 125.695-10.8164 125.891-10.5117 126.086-10.207 126.346-9.9375 126.67-9.70312 126.994-9.46875 127.363-9.25391 127.778-9.05859 128.192-8.86328 128.613-8.66602 129.043-8.4668 129.473-8.26758 129.895-8.04883 130.309-7.81055 130.723-7.57227 131.092-7.29102 131.416-6.9668 131.74-6.64258 132.002-6.25977 132.201-5.81836 132.401-5.37695 132.5-4.85547 132.5-4.25391ZM143.5-4.25391C143.5-3.54297 143.369-2.91016 143.108-2.35547 142.846-1.80078 142.483-1.33008 142.018-0.943359 141.553-0.556641 141.006-0.265625 140.377-0.0703125 139.748 0.125 139.07 0.222656 138.344 0.222656 137.836 0.222656 137.365 0.179687 136.932 0.09375 136.498 0.0078125 136.111-0.0976562 135.772-0.222656 135.432-0.347656 135.147-0.476562 134.916-0.609375 134.686-0.742187 134.526-0.855469 134.436-0.949219 134.346-1.04297 134.279-1.16211 134.236-1.30664 134.194-1.45117 134.172-1.64453 134.172-1.88672 134.172-2.05859 134.18-2.20117 134.195-2.31445 134.211-2.42773 134.235-2.51953 134.266-2.58984 134.297-2.66016 134.336-2.70898 134.383-2.73633 134.43-2.76367 134.485-2.77734 134.547-2.77734 134.656-2.77734 134.811-2.71094 135.01-2.57812 135.209-2.44531 135.465-2.30078 135.777-2.14453 136.09-1.98828 136.467-1.8418 136.908-1.70508 137.35-1.56836 137.86-1.5 138.438-1.5 138.875-1.5 139.276-1.55859 139.639-1.67578 140.002-1.79297 140.315-1.95898 140.576-2.17383 140.838-2.38867 141.039-2.65234 141.18-2.96484 141.32-3.27734 141.391-3.63281 141.391-4.03125 141.391-4.46094 141.293-4.82812 141.098-5.13281 140.902-5.4375 140.645-5.70508 140.324-5.93555 140.004-6.16602 139.639-6.37695 139.229-6.56836 138.819-6.75977 138.399-6.95508 137.969-7.1543 137.539-7.35352 137.121-7.57422 136.715-7.81641 136.309-8.05859 135.945-8.34375 135.625-8.67188 135.305-9 135.045-9.38477 134.846-9.82617 134.647-10.2676 134.547-10.7969 134.547-11.4141 134.547-12.0469 134.662-12.6113 134.893-13.1074 135.123-13.6035 135.444-14.0195 135.854-14.3555 136.264-14.6914 136.752-14.9473 137.319-15.123 137.885-15.2988 138.496-15.3867 139.152-15.3867 139.488-15.3867 139.826-15.3574 140.166-15.2988 140.506-15.2402 140.826-15.1621 141.127-15.0645 141.428-14.9668 141.695-14.8574 141.93-14.7363 142.164-14.6152 142.319-14.5176 142.393-14.4434 142.467-14.3691 142.516-14.3105 142.539-14.2676 142.563-14.2246 142.582-14.1699 142.598-14.1035 142.613-14.0371 142.625-13.957 142.633-13.8633 142.641-13.7695 142.645-13.6484 142.645-13.5 142.645-13.3594 142.639-13.2344 142.627-13.125 142.615-13.0156 142.598-12.9238 142.574-12.8496 142.551-12.7754 142.518-12.7207 142.475-12.6855 142.432-12.6504 142.383-12.6328 142.328-12.6328 142.242-12.6328 142.108-12.6875 141.924-12.7969 141.74-12.9062 141.516-13.0293 141.25-13.166 140.985-13.3027 140.67-13.4277 140.307-13.541 139.944-13.6543 139.535-13.7109 139.082-13.7109 138.66-13.7109 138.293-13.6543 137.981-13.541 137.668-13.4277 137.41-13.2773 137.207-13.0898 137.004-12.9023 136.852-12.6797 136.75-12.4219 136.649-12.1641 136.598-11.8906 136.598-11.6016 136.598-11.1797 136.695-10.8164 136.891-10.5117 137.086-10.207 137.346-9.9375 137.67-9.70312 137.994-9.46875 138.363-9.25391 138.777-9.05859 139.192-8.86328 139.613-8.66602 140.043-8.4668 140.473-8.26758 140.895-8.04883 141.309-7.81055 141.723-7.57227 142.092-7.29102 142.416-6.9668 142.74-6.64258 143.002-6.25977 143.201-5.81836 143.401-5.37695 143.5-4.85547 143.5-4.25391ZM161.852-4.34766C161.852-3.87109 161.791-3.43164 161.67-3.0293 161.549-2.62695 161.379-2.26562 161.16-1.94531 160.942-1.625 160.678-1.34375 160.369-1.10156 160.061-0.859375 159.713-0.65625 159.326-0.492188 158.94-0.328125 158.526-0.205078 158.084-0.123047 157.643-0.0410156 157.137 0 156.567 0L152.606 0C152.426 0 152.256-0.0605469 152.096-0.181641 151.936-0.302734 151.856-0.515625 151.856-0.820312L151.856-14.3438C151.856-14.6484 151.936-14.8613 152.096-14.9824 152.256-15.1035 152.426-15.1641 152.606-15.1641L156.051-15.1641C156.957-15.1641 157.699-15.0781 158.277-14.9062 158.856-14.7344 159.338-14.4844 159.725-14.1562 160.111-13.8281 160.402-13.4258 160.598-12.9492 160.793-12.4727 160.891-11.9336 160.891-11.332 160.891-10.9727 160.848-10.6289 160.762-10.3008 160.676-9.97266 160.549-9.66992 160.381-9.39258 160.213-9.11523 160.002-8.86719 159.748-8.64844 159.494-8.42969 159.203-8.25 158.875-8.10938 159.289-8.03125 159.676-7.88867 160.035-7.68164 160.395-7.47461 160.709-7.21094 160.979-6.89062 161.248-6.57031 161.461-6.19531 161.617-5.76562 161.774-5.33594 161.852-4.86328 161.852-4.34766ZM158.817-11.1328C158.817-11.5 158.766-11.832 158.665-12.1289 158.563-12.4258 158.403-12.6777 158.185-12.8848 157.967-13.0918 157.682-13.25 157.332-13.3594 156.981-13.4687 156.517-13.5234 155.941-13.5234L153.86-13.5234 153.86-8.61328 156.151-8.61328C156.673-8.61328 157.094-8.68164 157.414-8.81836 157.733-8.95508 157.998-9.13867 158.209-9.36914 158.419-9.59961 158.573-9.86914 158.67-10.1777 158.768-10.4863 158.817-10.8047 158.817-11.1328ZM159.731-4.23047C159.731-4.68359 159.659-5.08203 159.514-5.42578 159.37-5.76953 159.16-6.05859 158.883-6.29297 158.606-6.52734 158.259-6.70508 157.842-6.82617 157.425-6.94727 156.9-7.00781 156.269-7.00781L153.86-7.00781 153.86-1.66406 156.783-1.66406C157.243-1.66406 157.645-1.71875 157.988-1.82812 158.331-1.9375 158.633-2.09961 158.894-2.31445 159.156-2.5293 159.36-2.79688 159.508-3.11719 159.657-3.4375 159.731-3.80859 159.731-4.23047ZM173.668-0.292969C173.668-0.230469 173.654-0.177734 173.627-0.134766 173.6-0.0917969 173.551-0.0546875 173.481-0.0234375 173.41 0.0078125 173.319 0.03125 173.205 0.046875 173.092 0.0625 172.953 0.0703125 172.789 0.0703125 172.61 0.0703125 172.463 0.0625 172.35 0.046875 172.236 0.03125 172.147 0.0078125 172.08-0.0234375 172.014-0.0546875 171.969-0.0917969 171.945-0.134766 171.922-0.177734 171.91-0.230469 171.91-0.292969L171.91-1.6875C171.309-1.02344 170.715-0.539062 170.129-0.234375 169.543 0.0703125 168.949 0.222656 168.348 0.222656 167.645 0.222656 167.053 0.105469 166.572-0.128906 166.092-0.363281 165.703-0.681641 165.406-1.08398 165.11-1.48633 164.897-1.95508 164.768-2.49023 164.639-3.02539 164.574-3.67578 164.574-4.44141L164.574-10.8398C164.574-10.9023 164.588-10.9551 164.615-10.998 164.643-11.041 164.695-11.0801 164.774-11.1152 164.852-11.1504 164.953-11.1738 165.078-11.1855 165.203-11.1973 165.36-11.2031 165.547-11.2031 165.735-11.2031 165.891-11.1973 166.016-11.1855 166.141-11.1738 166.24-11.1504 166.315-11.1152 166.389-11.0801 166.442-11.041 166.473-10.998 166.504-10.9551 166.52-10.9023 166.52-10.8398L166.52-4.69922C166.52-4.08203 166.565-3.58789 166.654-3.2168 166.744-2.8457 166.881-2.5293 167.065-2.26758 167.248-2.00586 167.481-1.80273 167.762-1.6582 168.043-1.51367 168.371-1.44141 168.746-1.44141 169.231-1.44141 169.713-1.61328 170.194-1.95703 170.674-2.30078 171.184-2.80469 171.723-3.46875L171.723-10.8398C171.723-10.9023 171.736-10.9551 171.764-10.998 171.791-11.041 171.844-11.0801 171.922-11.1152 172-11.1504 172.1-11.1738 172.221-11.1855 172.342-11.1973 172.5-11.2031 172.695-11.2031 172.883-11.2031 173.039-11.1973 173.164-11.1855 173.289-11.1738 173.387-11.1504 173.457-11.1152 173.527-11.0801 173.58-11.041 173.615-10.998 173.651-10.9551 173.668-10.9023 173.668-10.8398ZM183.464-10.1484C183.464-9.97656 183.46-9.83203 183.452-9.71484 183.444-9.59766 183.429-9.50586 183.405-9.43945 183.382-9.37305 183.352-9.32227 183.317-9.28711 183.282-9.25195 183.233-9.23438 183.171-9.23438 183.108-9.23438 183.032-9.25195 182.942-9.28711 182.852-9.32227 182.751-9.35742 182.638-9.39258 182.524-9.42773 182.397-9.46094 182.257-9.49219 182.116-9.52344 181.964-9.53906 181.8-9.53906 181.604-9.53906 181.413-9.5 181.225-9.42188 181.038-9.34375 180.841-9.21484 180.634-9.03516 180.427-8.85547 180.21-8.61719 179.983-8.32031 179.757-8.02344 179.507-7.66016 179.233-7.23047L179.233-0.292969C179.233-0.230469 179.218-0.177734 179.186-0.134766 179.155-0.0917969 179.104-0.0546875 179.034-0.0234375 178.964 0.0078125 178.866 0.03125 178.741 0.046875 178.616 0.0625 178.456 0.0703125 178.261 0.0703125 178.073 0.0703125 177.917 0.0625 177.792 0.046875 177.667 0.03125 177.567 0.0078125 177.493-0.0234375 177.419-0.0546875 177.368-0.0917969 177.341-0.134766 177.313-0.177734 177.3-0.230469 177.3-0.292969L177.3-10.8398C177.3-10.9023 177.311-10.9551 177.335-10.998 177.358-11.041 177.405-11.0801 177.475-11.1152 177.546-11.1504 177.636-11.1738 177.745-11.1855 177.854-11.1973 177.999-11.2031 178.179-11.2031 178.35-11.2031 178.493-11.1973 178.606-11.1855 178.72-11.1738 178.807-11.1504 178.87-11.1152 178.932-11.0801 178.977-11.041 179.005-10.998 179.032-10.9551 179.046-10.9023 179.046-10.8398L179.046-9.30469C179.335-9.72656 179.606-10.0703 179.86-10.3359 180.114-10.6016 180.354-10.8105 180.581-10.9629 180.807-11.1152 181.032-11.2207 181.255-11.2793 181.477-11.3379 181.702-11.3672 181.929-11.3672 182.03-11.3672 182.145-11.3613 182.274-11.3496 182.403-11.3379 182.538-11.3164 182.679-11.2852 182.819-11.2539 182.946-11.2188 183.059-11.1797 183.173-11.1406 183.253-11.1016 183.3-11.0625 183.347-11.0234 183.378-10.9863 183.393-10.9512 183.409-10.916 183.423-10.8711 183.434-10.8164 183.446-10.7617 183.454-10.6816 183.458-10.5762 183.462-10.4707 183.464-10.3281 183.464-10.1484ZM194.119-10.3594C194.119-10.0859 194.082-9.88867 194.007-9.76758 193.933-9.64648 193.838-9.58594 193.72-9.58594L192.209-9.58594C192.482-9.30469 192.673-8.99414 192.783-8.6543 192.892-8.31445 192.947-7.96094 192.947-7.59375 192.947-6.98437 192.849-6.44531 192.654-5.97656 192.459-5.50781 192.179-5.11133 191.816-4.78711 191.453-4.46289 191.021-4.21484 190.521-4.04297 190.021-3.87109 189.466-3.78516 188.857-3.78516 188.427-3.78516 188.019-3.8418 187.632-3.95508 187.246-4.06836 186.947-4.21094 186.736-4.38281 186.595-4.24219 186.48-4.08203 186.39-3.90234 186.3-3.72266 186.256-3.51562 186.256-3.28125 186.256-3.00781 186.382-2.78125 186.636-2.60156 186.89-2.42188 187.228-2.32422 187.65-2.30859L190.404-2.19141C190.927-2.17578 191.408-2.10352 191.845-1.97461 192.283-1.8457 192.662-1.66211 192.982-1.42383 193.302-1.18555 193.552-0.892578 193.732-0.544922 193.912-0.197266 194.002 0.207031 194.002 0.667969 194.002 1.15234 193.9 1.61328 193.697 2.05078 193.494 2.48828 193.183 2.87305 192.765 3.20508 192.347 3.53711 191.814 3.79883 191.166 3.99023 190.517 4.18164 189.752 4.27734 188.869 4.27734 188.017 4.27734 187.293 4.20508 186.695 4.06055 186.097 3.91602 185.607 3.71875 185.224 3.46875 184.841 3.21875 184.564 2.91992 184.392 2.57227 184.22 2.22461 184.134 1.84766 184.134 1.44141 184.134 1.18359 184.166 0.933594 184.228 0.691406 184.291 0.449219 184.386 0.21875 184.515 0 184.644-0.21875 184.804-0.427734 184.996-0.626953 185.187-0.826172 185.408-1.02344 185.658-1.21875 185.275-1.41406 184.992-1.66016 184.808-1.95703 184.625-2.25391 184.533-2.57422 184.533-2.91797 184.533-3.39453 184.631-3.82031 184.826-4.19531 185.021-4.57031 185.263-4.90625 185.552-5.20312 185.31-5.49219 185.119-5.81836 184.978-6.18164 184.838-6.54492 184.767-6.98437 184.767-7.5 184.767-8.10156 184.869-8.64062 185.072-9.11719 185.275-9.59375 185.556-9.99609 185.916-10.3242 186.275-10.6523 186.707-10.9043 187.211-11.0801 187.715-11.2559 188.263-11.3438 188.857-11.3438 189.177-11.3438 189.476-11.3262 189.754-11.291 190.031-11.2559 190.291-11.207 190.533-11.1445L193.72-11.1445C193.853-11.1445 193.953-11.0801 194.019-10.9512 194.086-10.8223 194.119-10.625 194.119-10.3594ZM191.095-7.58203C191.095-8.30078 190.898-8.86133 190.504-9.26367 190.109-9.66602 189.548-9.86719 188.822-9.86719 188.447-9.86719 188.121-9.80469 187.843-9.67969 187.566-9.55469 187.336-9.38281 187.152-9.16406 186.968-8.94531 186.832-8.69336 186.742-8.4082 186.652-8.12305 186.607-7.82422 186.607-7.51172 186.607-6.81641 186.804-6.26953 187.199-5.87109 187.593-5.47266 188.146-5.27344 188.857-5.27344 189.24-5.27344 189.572-5.33398 189.853-5.45508 190.134-5.57617 190.367-5.74414 190.55-5.95898 190.734-6.17383 190.871-6.42187 190.961-6.70312 191.05-6.98437 191.095-7.27734 191.095-7.58203ZM192.068 0.773438C192.068 0.320312 191.882-0.0292969 191.511-0.275391 191.14-0.521484 190.638-0.652344 190.006-0.667969L187.275-0.761719C187.025-0.566406 186.82-0.380859 186.66-0.205078 186.5-0.0292969 186.373 0.138672 186.279 0.298828 186.185 0.458984 186.121 0.617188 186.086 0.773438 186.05 0.929687 186.033 1.08984 186.033 1.25391 186.033 1.76172 186.291 2.14648 186.806 2.4082 187.322 2.66992 188.041 2.80078 188.963 2.80078 189.548 2.80078 190.039 2.74414 190.433 2.63086 190.828 2.51758 191.146 2.36719 191.388 2.17969 191.631 1.99219 191.804 1.77734 191.91 1.53516 192.015 1.29297 192.068 1.03906 192.068 0.773438ZM205.44-6.02344C205.44-5.71875 205.363-5.50195 205.21-5.37305 205.057-5.24414 204.882-5.17969 204.686-5.17969L197.74-5.17969C197.74-4.59375 197.799-4.06641 197.917-3.59766 198.035-3.12891 198.231-2.72656 198.506-2.39062 198.781-2.05469 199.138-1.79687 199.577-1.61719 200.017-1.4375 200.555-1.34766 201.191-1.34766 201.693-1.34766 202.141-1.38867 202.533-1.4707 202.926-1.55273 203.265-1.64453 203.552-1.74609 203.838-1.84766 204.074-1.93945 204.258-2.02148 204.443-2.10352 204.582-2.14453 204.676-2.14453 204.731-2.14453 204.78-2.13086 204.824-2.10352 204.867-2.07617 204.9-2.03516 204.924-1.98047 204.947-1.92578 204.965-1.84961 204.977-1.75195 204.988-1.6543 204.994-1.53516 204.994-1.39453 204.994-1.29297 204.99-1.20508 204.983-1.13086 204.975-1.05664 204.965-0.990234 204.953-0.931641 204.942-0.873047 204.922-0.820312 204.895-0.773438 204.867-0.726562 204.832-0.681641 204.789-0.638672 204.746-0.595703 204.619-0.525391 204.408-0.427734 204.197-0.330078 203.924-0.234375 203.588-0.140625 203.252-0.046875 202.863 0.0371094 202.422 0.111328 201.981 0.185547 201.51 0.222656 201.01 0.222656 200.143 0.222656 199.383 0.101562 198.731-0.140625 198.078-0.382812 197.529-0.742188 197.084-1.21875 196.639-1.69531 196.303-2.29297 196.076-3.01172 195.85-3.73047 195.737-4.56641 195.737-5.51953 195.737-6.42578 195.854-7.24023 196.088-7.96289 196.322-8.68555 196.66-9.29883 197.102-9.80273 197.543-10.3066 198.076-10.6934 198.701-10.9629 199.326-11.2324 200.026-11.3672 200.799-11.3672 201.627-11.3672 202.332-11.2344 202.914-10.9688 203.496-10.7031 203.975-10.3457 204.35-9.89648 204.725-9.44727 205-8.91992 205.176-8.31445 205.352-7.70898 205.44-7.0625 205.44-6.375ZM203.494-6.59766C203.518-7.61328 203.292-8.41016 202.816-8.98828 202.341-9.56641 201.635-9.85547 200.7-9.85547 200.22-9.85547 199.8-9.76562 199.438-9.58594 199.077-9.40625 198.774-9.16797 198.53-8.87109 198.287-8.57422 198.098-8.22852 197.964-7.83398 197.831-7.43945 197.756-7.02734 197.74-6.59766ZM214.604-10.1484C214.604-9.97656 214.6-9.83203 214.592-9.71484 214.584-9.59766 214.569-9.50586 214.545-9.43945 214.522-9.37305 214.492-9.32227 214.457-9.28711 214.422-9.25195 214.373-9.23438 214.311-9.23438 214.248-9.23438 214.172-9.25195 214.082-9.28711 213.992-9.32227 213.891-9.35742 213.778-9.39258 213.664-9.42773 213.537-9.46094 213.397-9.49219 213.256-9.52344 213.104-9.53906 212.94-9.53906 212.744-9.53906 212.553-9.5 212.365-9.42188 212.178-9.34375 211.981-9.21484 211.774-9.03516 211.567-8.85547 211.35-8.61719 211.123-8.32031 210.897-8.02344 210.647-7.66016 210.373-7.23047L210.373-0.292969C210.373-0.230469 210.358-0.177734 210.326-0.134766 210.295-0.0917969 210.244-0.0546875 210.174-0.0234375 210.104 0.0078125 210.006 0.03125 209.881 0.046875 209.756 0.0625 209.596 0.0703125 209.401 0.0703125 209.213 0.0703125 209.057 0.0625 208.932 0.046875 208.807 0.03125 208.707 0.0078125 208.633-0.0234375 208.559-0.0546875 208.508-0.0917969 208.481-0.134766 208.453-0.177734 208.44-0.230469 208.44-0.292969L208.44-10.8398C208.44-10.9023 208.451-10.9551 208.475-10.998 208.498-11.041 208.545-11.0801 208.615-11.1152 208.686-11.1504 208.776-11.1738 208.885-11.1855 208.994-11.1973 209.139-11.2031 209.319-11.2031 209.49-11.2031 209.633-11.1973 209.746-11.1855 209.86-11.1738 209.947-11.1504 210.01-11.1152 210.072-11.0801 210.117-11.041 210.145-10.998 210.172-10.9551 210.186-10.9023 210.186-10.8398L210.186-9.30469C210.475-9.72656 210.746-10.0703 211-10.3359 211.254-10.6016 211.494-10.8105 211.721-10.9629 211.947-11.1152 212.172-11.2207 212.395-11.2793 212.617-11.3379 212.842-11.3672 213.069-11.3672 213.17-11.3672 213.285-11.3613 213.414-11.3496 213.543-11.3379 213.678-11.3164 213.819-11.2852 213.959-11.2539 214.086-11.2188 214.199-11.1797 214.313-11.1406 214.393-11.1016 214.44-11.0625 214.487-11.0234 214.518-10.9863 214.533-10.9512 214.549-10.916 214.563-10.8711 214.574-10.8164 214.586-10.7617 214.594-10.6816 214.598-10.5762 214.602-10.4707 214.604-10.3281 214.604-10.1484ZM232.386-0.328125C232.386-0.265625 232.373-0.208984 232.345-0.158203 232.318-0.107422 232.265-0.0664062 232.187-0.0351562 232.109-0.00390625 232.003 0.0214844 231.871 0.0410156 231.738 0.0605469 231.566 0.0703125 231.355 0.0703125 231.082 0.0703125 230.859 0.0585937 230.687 0.0351562 230.515 0.0117188 230.386-0.03125 230.3-0.09375 230.214-0.15625 230.144-0.226562 230.089-0.304688L224.511-7.88672 224.511-0.304688C224.511-0.25 224.496-0.197266 224.464-0.146484 224.433-0.0957031 224.378-0.0566406 224.3-0.0292969 224.222-0.00195313 224.119 0.0214844 223.99 0.0410156 223.861 0.0605469 223.699 0.0703125 223.503 0.0703125 223.316 0.0703125 223.156 0.0605469 223.023 0.0410156 222.89 0.0214844 222.785-0.00195313 222.707-0.0292969 222.628-0.0566406 222.574-0.0957031 222.542-0.146484 222.511-0.197266 222.496-0.25 222.496-0.304688L222.496-14.8594C222.496-14.9219 222.511-14.9766 222.542-15.0234 222.574-15.0703 222.628-15.1074 222.707-15.1348 222.785-15.1621 222.89-15.1855 223.023-15.2051 223.156-15.2246 223.316-15.2344 223.503-15.2344 223.699-15.2344 223.861-15.2246 223.99-15.2051 224.119-15.1855 224.222-15.1621 224.3-15.1348 224.378-15.1074 224.433-15.0703 224.464-15.0234 224.496-14.9766 224.511-14.9219 224.511-14.8594L224.511-8.12109 229.878-14.8594C229.925-14.9297 229.98-14.9883 230.042-15.0352 230.105-15.082 230.181-15.1191 230.271-15.1465 230.361-15.1738 230.47-15.1953 230.599-15.2109 230.728-15.2266 230.894-15.2344 231.097-15.2344 231.3-15.2344 231.464-15.2246 231.589-15.2051 231.714-15.1855 231.814-15.1602 231.888-15.1289 231.962-15.0977 232.013-15.0586 232.041-15.0117 232.068-14.9648 232.082-14.9141 232.082-14.8594 232.082-14.7578 232.056-14.6562 232.005-14.5547 231.955-14.4531 231.859-14.3125 231.718-14.1328L226.691-8.12109 232.105-0.925781C232.238-0.722656 232.318-0.583984 232.345-0.509766 232.373-0.435547 232.386-0.375 232.386-0.328125ZM236.707-0.292969C236.707-0.230469 236.691-0.177734 236.66-0.134766 236.628-0.0917969 236.578-0.0546875 236.507-0.0234375 236.437 0.0078125 236.339 0.03125 236.214 0.046875 236.089 0.0625 235.929 0.0703125 235.734 0.0703125 235.546 0.0703125 235.39 0.0625 235.265 0.046875 235.14 0.03125 235.041 0.0078125 234.966-0.0234375 234.892-0.0546875 234.841-0.0917969 234.814-0.134766 234.787-0.177734 234.773-0.230469 234.773-0.292969L234.773-10.8398C234.773-10.8945 234.787-10.9453 234.814-10.9922 234.841-11.0391 234.892-11.0781 234.966-11.1094 235.041-11.1406 235.14-11.1641 235.265-11.1797 235.39-11.1953 235.546-11.2031 235.734-11.2031 235.929-11.2031 236.089-11.1953 236.214-11.1797 236.339-11.1641 236.437-11.1406 236.507-11.1094 236.578-11.0781 236.628-11.0391 236.66-10.9922 236.691-10.9453 236.707-10.8945 236.707-10.8398ZM236.929-14.4023C236.929-13.9492 236.843-13.6406 236.671-13.4766 236.5-13.3125 236.183-13.2305 235.722-13.2305 235.269-13.2305 234.959-13.3105 234.791-13.4707 234.623-13.6309 234.539-13.9336 234.539-14.3789 234.539-14.832 234.625-15.1406 234.796-15.3047 234.968-15.4687 235.285-15.5508 235.746-15.5508 236.199-15.5508 236.509-15.4707 236.677-15.3105 236.845-15.1504 236.929-14.8477 236.929-14.4023ZM249.355-0.292969C249.355-0.230469 249.339-0.177734 249.308-0.134766 249.277-0.0917969 249.226-0.0546875 249.156-0.0234375 249.085 0.0078125 248.988 0.03125 248.863 0.046875 248.738 0.0625 248.582 0.0703125 248.394 0.0703125 248.199 0.0703125 248.039 0.0625 247.914 0.046875 247.789 0.03125 247.691 0.0078125 247.621-0.0234375 247.55-0.0546875 247.5-0.0917969 247.468-0.134766 247.437-0.177734 247.421-0.230469 247.421-0.292969L247.421-6.46875C247.421-7.07031 247.375-7.55469 247.281-7.92188 247.187-8.28906 247.05-8.60547 246.871-8.87109 246.691-9.13672 246.458-9.33984 246.173-9.48047 245.888-9.62109 245.558-9.69141 245.183-9.69141 244.699-9.69141 244.214-9.51953 243.73-9.17578 243.246-8.83203 242.738-8.32812 242.207-7.66406L242.207-0.292969C242.207-0.230469 242.191-0.177734 242.16-0.134766 242.128-0.0917969 242.078-0.0546875 242.007-0.0234375 241.937 0.0078125 241.839 0.03125 241.714 0.046875 241.589 0.0625 241.429 0.0703125 241.234 0.0703125 241.046 0.0703125 240.89 0.0625 240.765 0.046875 240.64 0.03125 240.541 0.0078125 240.466-0.0234375 240.392-0.0546875 240.341-0.0917969 240.314-0.134766 240.287-0.177734 240.273-0.230469 240.273-0.292969L240.273-10.8398C240.273-10.9023 240.285-10.9551 240.308-10.998 240.332-11.041 240.378-11.0801 240.449-11.1152 240.519-11.1504 240.609-11.1738 240.718-11.1855 240.828-11.1973 240.972-11.2031 241.152-11.2031 241.324-11.2031 241.466-11.1973 241.58-11.1855 241.693-11.1738 241.781-11.1504 241.843-11.1152 241.906-11.0801 241.951-11.041 241.978-10.998 242.005-10.9551 242.019-10.9023 242.019-10.8398L242.019-9.44531C242.613-10.1094 243.205-10.5957 243.794-10.9043 244.384-11.2129 244.98-11.3672 245.582-11.3672 246.285-11.3672 246.876-11.248 247.357-11.0098 247.837-10.7715 248.226-10.4531 248.523-10.0547 248.82-9.65625 249.033-9.18945 249.162-8.6543 249.291-8.11914 249.355-7.47656 249.355-6.72656ZM261.752-10.3594C261.752-10.0859 261.715-9.88867 261.641-9.76758 261.567-9.64648 261.471-9.58594 261.354-9.58594L259.842-9.58594C260.115-9.30469 260.307-8.99414 260.416-8.6543 260.526-8.31445 260.58-7.96094 260.58-7.59375 260.58-6.98437 260.483-6.44531 260.287-5.97656 260.092-5.50781 259.813-5.11133 259.449-4.78711 259.086-4.46289 258.654-4.21484 258.154-4.04297 257.654-3.87109 257.1-3.78516 256.49-3.78516 256.061-3.78516 255.653-3.8418 255.266-3.95508 254.879-4.06836 254.58-4.21094 254.369-4.38281 254.229-4.24219 254.113-4.08203 254.024-3.90234 253.934-3.72266 253.889-3.51562 253.889-3.28125 253.889-3.00781 254.016-2.78125 254.27-2.60156 254.524-2.42188 254.862-2.32422 255.283-2.30859L258.037-2.19141C258.561-2.17578 259.041-2.10352 259.479-1.97461 259.916-1.8457 260.295-1.66211 260.615-1.42383 260.936-1.18555 261.186-0.892578 261.365-0.544922 261.545-0.197266 261.635 0.207031 261.635 0.667969 261.635 1.15234 261.533 1.61328 261.33 2.05078 261.127 2.48828 260.817 2.87305 260.399 3.20508 259.981 3.53711 259.447 3.79883 258.799 3.99023 258.151 4.18164 257.385 4.27734 256.502 4.27734 255.651 4.27734 254.926 4.20508 254.328 4.06055 253.731 3.91602 253.24 3.71875 252.858 3.46875 252.475 3.21875 252.197 2.91992 252.026 2.57227 251.854 2.22461 251.768 1.84766 251.768 1.44141 251.768 1.18359 251.799 0.933594 251.862 0.691406 251.924 0.449219 252.02 0.21875 252.149 0 252.278-0.21875 252.438-0.427734 252.629-0.626953 252.82-0.826172 253.041-1.02344 253.291-1.21875 252.908-1.41406 252.625-1.66016 252.442-1.95703 252.258-2.25391 252.166-2.57422 252.166-2.91797 252.166-3.39453 252.264-3.82031 252.459-4.19531 252.654-4.57031 252.897-4.90625 253.186-5.20312 252.944-5.49219 252.752-5.81836 252.612-6.18164 252.471-6.54492 252.401-6.98437 252.401-7.5 252.401-8.10156 252.502-8.64062 252.705-9.11719 252.908-9.59375 253.19-9.99609 253.549-10.3242 253.908-10.6523 254.34-10.9043 254.844-11.0801 255.348-11.2559 255.897-11.3438 256.49-11.3438 256.811-11.3438 257.11-11.3262 257.387-11.291 257.664-11.2559 257.924-11.207 258.166-11.1445L261.354-11.1445C261.487-11.1445 261.586-11.0801 261.653-10.9512 261.719-10.8223 261.752-10.625 261.752-10.3594ZM258.729-7.58203C258.729-8.30078 258.531-8.86133 258.137-9.26367 257.742-9.66602 257.182-9.86719 256.455-9.86719 256.08-9.86719 255.754-9.80469 255.477-9.67969 255.199-9.55469 254.969-9.38281 254.785-9.16406 254.602-8.94531 254.465-8.69336 254.375-8.4082 254.285-8.12305 254.24-7.82422 254.24-7.51172 254.24-6.81641 254.438-6.26953 254.832-5.87109 255.227-5.47266 255.779-5.27344 256.49-5.27344 256.873-5.27344 257.205-5.33398 257.487-5.45508 257.768-5.57617 258-5.74414 258.184-5.95898 258.367-6.17383 258.504-6.42187 258.594-6.70312 258.684-6.98437 258.729-7.27734 258.729-7.58203ZM259.701 0.773438C259.701 0.320312 259.516-0.0292969 259.145-0.275391 258.774-0.521484 258.272-0.652344 257.639-0.667969L254.908-0.761719C254.658-0.566406 254.453-0.380859 254.293-0.205078 254.133-0.0292969 254.006 0.138672 253.912 0.298828 253.819 0.458984 253.754 0.617188 253.719 0.773438 253.684 0.929687 253.666 1.08984 253.666 1.25391 253.666 1.76172 253.924 2.14648 254.44 2.4082 254.955 2.66992 255.674 2.80078 256.596 2.80078 257.182 2.80078 257.672 2.74414 258.067 2.63086 258.461 2.51758 258.779 2.36719 259.022 2.17969 259.264 1.99219 259.438 1.77734 259.543 1.53516 259.649 1.29297 259.701 1.03906 259.701 0.773438ZM279.992-4.34766C279.992-3.87109 279.931-3.43164 279.81-3.0293 279.689-2.62695 279.519-2.26562 279.3-1.94531 279.082-1.625 278.818-1.34375 278.509-1.10156 278.201-0.859375 277.853-0.65625 277.466-0.492188 277.08-0.328125 276.666-0.205078 276.224-0.123047 275.783-0.0410156 275.277 0 274.707 0L270.746 0C270.566 0 270.396-0.0605469 270.236-0.181641 270.076-0.302734 269.996-0.515625 269.996-0.820312L269.996-14.3438C269.996-14.6484 270.076-14.8613 270.236-14.9824 270.396-15.1035 270.566-15.1641 270.746-15.1641L274.191-15.1641C275.097-15.1641 275.839-15.0781 276.418-14.9062 276.996-14.7344 277.478-14.4844 277.865-14.1562 278.251-13.8281 278.543-13.4258 278.738-12.9492 278.933-12.4727 279.031-11.9336 279.031-11.332 279.031-10.9727 278.988-10.6289 278.902-10.3008 278.816-9.97266 278.689-9.66992 278.521-9.39258 278.353-9.11523 278.142-8.86719 277.888-8.64844 277.634-8.42969 277.343-8.25 277.015-8.10938 277.429-8.03125 277.816-7.88867 278.175-7.68164 278.535-7.47461 278.849-7.21094 279.119-6.89062 279.388-6.57031 279.601-6.19531 279.757-5.76562 279.914-5.33594 279.992-4.86328 279.992-4.34766ZM276.957-11.1328C276.957-11.5 276.906-11.832 276.805-12.1289 276.703-12.4258 276.543-12.6777 276.325-12.8848 276.107-13.0918 275.822-13.25 275.472-13.3594 275.121-13.4687 274.657-13.5234 274.081-13.5234L272-13.5234 272-8.61328 274.291-8.61328C274.813-8.61328 275.234-8.68164 275.554-8.81836 275.873-8.95508 276.138-9.13867 276.349-9.36914 276.559-9.59961 276.713-9.86914 276.81-10.1777 276.908-10.4863 276.957-10.8047 276.957-11.1328ZM277.871-4.23047C277.871-4.68359 277.799-5.08203 277.654-5.42578 277.51-5.76953 277.3-6.05859 277.023-6.29297 276.746-6.52734 276.399-6.70508 275.982-6.82617 275.565-6.94727 275.04-7.00781 274.409-7.00781L272-7.00781 272-1.66406 274.923-1.66406C275.383-1.66406 275.785-1.71875 276.128-1.82812 276.471-1.9375 276.773-2.09961 277.034-2.31445 277.296-2.5293 277.5-2.79688 277.648-3.11719 277.797-3.4375 277.871-3.80859 277.871-4.23047ZM288.937-10.1484C288.937-9.97656 288.933-9.83203 288.925-9.71484 288.917-9.59766 288.902-9.50586 288.878-9.43945 288.855-9.37305 288.826-9.32227 288.791-9.28711 288.755-9.25195 288.707-9.23438 288.644-9.23438 288.582-9.23438 288.505-9.25195 288.416-9.28711 288.326-9.32227 288.224-9.35742 288.111-9.39258 287.998-9.42773 287.871-9.46094 287.73-9.49219 287.589-9.52344 287.437-9.53906 287.273-9.53906 287.078-9.53906 286.886-9.5 286.699-9.42188 286.511-9.34375 286.314-9.21484 286.107-9.03516 285.9-8.85547 285.683-8.61719 285.457-8.32031 285.23-8.02344 284.98-7.66016 284.707-7.23047L284.707-0.292969C284.707-0.230469 284.691-0.177734 284.66-0.134766 284.628-0.0917969 284.578-0.0546875 284.507-0.0234375 284.437 0.0078125 284.339 0.03125 284.214 0.046875 284.089 0.0625 283.929 0.0703125 283.734 0.0703125 283.546 0.0703125 283.39 0.0625 283.265 0.046875 283.14 0.03125 283.041 0.0078125 282.966-0.0234375 282.892-0.0546875 282.841-0.0917969 282.814-0.134766 282.787-0.177734 282.773-0.230469 282.773-0.292969L282.773-10.8398C282.773-10.9023 282.785-10.9551 282.808-10.998 282.832-11.041 282.878-11.0801 282.949-11.1152 283.019-11.1504 283.109-11.1738 283.218-11.1855 283.328-11.1973 283.472-11.2031 283.652-11.2031 283.824-11.2031 283.966-11.1973 284.08-11.1855 284.193-11.1738 284.281-11.1504 284.343-11.1152 284.406-11.0801 284.451-11.041 284.478-10.998 284.505-10.9551 284.519-10.9023 284.519-10.8398L284.519-9.30469C284.808-9.72656 285.08-10.0703 285.334-10.3359 285.587-10.6016 285.828-10.8105 286.054-10.9629 286.281-11.1152 286.505-11.2207 286.728-11.2793 286.951-11.3379 287.175-11.3672 287.402-11.3672 287.503-11.3672 287.619-11.3613 287.748-11.3496 287.876-11.3379 288.011-11.3164 288.152-11.2852 288.292-11.2539 288.419-11.2188 288.533-11.1797 288.646-11.1406 288.726-11.1016 288.773-11.0625 288.82-11.0234 288.851-10.9863 288.867-10.9512 288.882-10.916 288.896-10.8711 288.908-10.8164 288.919-10.7617 288.927-10.6816 288.931-10.5762 288.935-10.4707 288.937-10.3281 288.937-10.1484ZM298.558-0.28125C298.558-0.1875 298.527-0.117187 298.465-0.0703125 298.402-0.0234375 298.316 0.0117188 298.207 0.0351562 298.097 0.0585937 297.937 0.0703125 297.726 0.0703125 297.523 0.0703125 297.361 0.0585937 297.24 0.0351562 297.119 0.0117188 297.031-0.0234375 296.976-0.0703125 296.922-0.117187 296.894-0.1875 296.894-0.28125L296.894-1.33594C296.433-0.84375 295.92-0.460937 295.353-0.1875 294.787 0.0859375 294.187 0.222656 293.554 0.222656 293 0.222656 292.498 0.150391 292.049 0.00585938 291.599-0.138672 291.216-0.347656 290.9-0.621094 290.584-0.894531 290.338-1.23047 290.162-1.62891 289.986-2.02734 289.898-2.48047 289.898-2.98828 289.898-3.58203 290.019-4.09766 290.261-4.53516 290.504-4.97266 290.851-5.33594 291.304-5.625 291.758-5.91406 292.312-6.13086 292.968-6.27539 293.625-6.41992 294.363-6.49219 295.183-6.49219L296.636-6.49219 296.636-7.3125C296.636-7.71875 296.593-8.07812 296.508-8.39062 296.422-8.70312 296.283-8.96289 296.091-9.16992 295.9-9.37695 295.652-9.5332 295.347-9.63867 295.043-9.74414 294.668-9.79688 294.222-9.79688 293.746-9.79688 293.318-9.74023 292.939-9.62695 292.56-9.51367 292.228-9.38867 291.943-9.25195 291.658-9.11523 291.42-8.99023 291.228-8.87695 291.037-8.76367 290.894-8.70703 290.8-8.70703 290.738-8.70703 290.683-8.72266 290.636-8.75391 290.59-8.78516 290.549-8.83203 290.513-8.89453 290.478-8.95703 290.453-9.03711 290.437-9.13477 290.422-9.23242 290.414-9.33984 290.414-9.45703 290.414-9.65234 290.427-9.80664 290.455-9.91992 290.482-10.0332 290.549-10.1406 290.654-10.2422 290.759-10.3438 290.941-10.4629 291.199-10.5996 291.457-10.7363 291.754-10.8613 292.09-10.9746 292.425-11.0879 292.793-11.1816 293.191-11.2559 293.59-11.3301 293.992-11.3672 294.398-11.3672 295.156-11.3672 295.8-11.2812 296.332-11.1094 296.863-10.9375 297.293-10.6855 297.621-10.3535 297.949-10.0215 298.187-9.60938 298.336-9.11719 298.484-8.625 298.558-8.05078 298.558-7.39453ZM296.636-5.09766 294.984-5.09766C294.453-5.09766 293.992-5.05273 293.601-4.96289 293.211-4.87305 292.886-4.74023 292.629-4.56445 292.371-4.38867 292.181-4.17773 292.06-3.93164 291.939-3.68555 291.879-3.40234 291.879-3.08203 291.879-2.53516 292.052-2.09961 292.4-1.77539 292.748-1.45117 293.234-1.28906 293.859-1.28906 294.367-1.28906 294.838-1.41797 295.271-1.67578 295.705-1.93359 296.16-2.32812 296.636-2.85938ZM308.734-3.16406C308.734-2.625 308.634-2.14453 308.435-1.72266 308.236-1.30078 307.953-0.945312 307.586-0.65625 307.218-0.367188 306.781-0.148437 306.273 0 305.765 0.148437 305.207 0.222656 304.597 0.222656 304.222 0.222656 303.865 0.193359 303.525 0.134766 303.185 0.0761719 302.881 0.00195312 302.611-0.0878906 302.341-0.177734 302.113-0.271484 301.925-0.369141 301.738-0.466797 301.601-0.554688 301.515-0.632812 301.429-0.710938 301.367-0.820312 301.328-0.960938 301.289-1.10156 301.269-1.29297 301.269-1.53516 301.269-1.68359 301.277-1.80859 301.293-1.91016 301.308-2.01172 301.328-2.09375 301.351-2.15625 301.375-2.21875 301.408-2.26367 301.451-2.29102 301.494-2.31836 301.543-2.33203 301.597-2.33203 301.683-2.33203 301.81-2.2793 301.978-2.17383 302.146-2.06836 302.353-1.95312 302.599-1.82812 302.845-1.70312 303.136-1.58789 303.472-1.48242 303.808-1.37695 304.195-1.32422 304.633-1.32422 304.961-1.32422 305.258-1.35938 305.523-1.42969 305.789-1.5 306.019-1.60352 306.215-1.74023 306.41-1.87695 306.56-2.05078 306.666-2.26172 306.771-2.47266 306.824-2.72266 306.824-3.01172 306.824-3.30859 306.748-3.55859 306.595-3.76172 306.443-3.96484 306.242-4.14453 305.992-4.30078 305.742-4.45703 305.461-4.5957 305.148-4.7168 304.836-4.83789 304.513-4.96484 304.181-5.09766 303.849-5.23047 303.525-5.38086 303.209-5.54883 302.892-5.7168 302.609-5.92188 302.359-6.16406 302.109-6.40625 301.908-6.69531 301.756-7.03125 301.603-7.36719 301.527-7.76953 301.527-8.23828 301.527-8.65234 301.607-9.04883 301.767-9.42773 301.927-9.80664 302.168-10.1387 302.488-10.4238 302.808-10.709 303.209-10.9375 303.689-11.1094 304.17-11.2812 304.73-11.3672 305.371-11.3672 305.652-11.3672 305.933-11.3438 306.215-11.2969 306.496-11.25 306.75-11.1914 306.976-11.1211 307.203-11.0508 307.396-10.9746 307.556-10.8926 307.716-10.8105 307.838-10.7383 307.92-10.6758 308.002-10.6133 308.056-10.5586 308.084-10.5117 308.111-10.4648 308.131-10.4121 308.142-10.3535 308.154-10.2949 308.166-10.2227 308.177-10.1367 308.189-10.0508 308.195-9.94531 308.195-9.82031 308.195-9.6875 308.189-9.57227 308.177-9.47461 308.166-9.37695 308.146-9.29688 308.119-9.23438 308.091-9.17188 308.058-9.12695 308.019-9.09961 307.98-9.07227 307.937-9.05859 307.89-9.05859 307.82-9.05859 307.718-9.10156 307.586-9.1875 307.453-9.27344 307.281-9.36523 307.07-9.46289 306.859-9.56055 306.611-9.65234 306.326-9.73828 306.041-9.82422 305.715-9.86719 305.347-9.86719 305.019-9.86719 304.73-9.83008 304.48-9.75586 304.23-9.68164 304.025-9.57617 303.865-9.43945 303.705-9.30273 303.584-9.14062 303.502-8.95312 303.42-8.76562 303.379-8.5625 303.379-8.34375 303.379-8.03906 303.457-7.7832 303.613-7.57617 303.769-7.36914 303.972-7.1875 304.222-7.03125 304.472-6.875 304.758-6.73437 305.078-6.60938 305.398-6.48437 305.724-6.35547 306.056-6.22266 306.388-6.08984 306.716-5.94141 307.041-5.77734 307.365-5.61328 307.652-5.41406 307.902-5.17969 308.152-4.94531 308.353-4.66406 308.506-4.33594 308.658-4.00781 308.734-3.61719 308.734-3.16406ZM313.38-0.292969C313.38-0.230469 313.364-0.177734 313.333-0.134766 313.302-0.0917969 313.251-0.0546875 313.181-0.0234375 313.11 0.0078125 313.013 0.03125 312.888 0.046875 312.763 0.0625 312.603 0.0703125 312.407 0.0703125 312.22 0.0703125 312.064 0.0625 311.939 0.046875 311.814 0.03125 311.714 0.0078125 311.64-0.0234375 311.565-0.0546875 311.515-0.0917969 311.487-0.134766 311.46-0.177734 311.446-0.230469 311.446-0.292969L311.446-10.8398C311.446-10.8945 311.46-10.9453 311.487-10.9922 311.515-11.0391 311.565-11.0781 311.64-11.1094 311.714-11.1406 311.814-11.1641 311.939-11.1797 312.064-11.1953 312.22-11.2031 312.407-11.2031 312.603-11.2031 312.763-11.1953 312.888-11.1797 313.013-11.1641 313.11-11.1406 313.181-11.1094 313.251-11.0781 313.302-11.0391 313.333-10.9922 313.364-10.9453 313.38-10.8945 313.38-10.8398ZM313.603-14.4023C313.603-13.9492 313.517-13.6406 313.345-13.4766 313.173-13.3125 312.856-13.2305 312.396-13.2305 311.942-13.2305 311.632-13.3105 311.464-13.4707 311.296-13.6309 311.212-13.9336 311.212-14.3789 311.212-14.832 311.298-15.1406 311.47-15.3047 311.642-15.4687 311.958-15.5508 312.419-15.5508 312.872-15.5508 313.183-15.4707 313.351-15.3105 313.519-15.1504 313.603-14.8477 313.603-14.4023ZM318.88-0.292969C318.88-0.230469 318.864-0.177734 318.833-0.134766 318.802-0.0917969 318.751-0.0546875 318.681-0.0234375 318.61 0.0078125 318.513 0.03125 318.388 0.046875 318.263 0.0625 318.103 0.0703125 317.907 0.0703125 317.72 0.0703125 317.563 0.0625 317.439 0.046875 317.313 0.03125 317.214 0.0078125 317.14-0.0234375 317.065-0.0546875 317.015-0.0917969 316.987-0.134766 316.96-0.177734 316.946-0.230469 316.946-0.292969L316.946-15.9492C316.946-16.0117 316.96-16.0664 316.987-16.1133 317.015-16.1602 317.065-16.1992 317.14-16.2305 317.214-16.2617 317.313-16.2852 317.439-16.3008 317.563-16.3164 317.72-16.3242 317.907-16.3242 318.103-16.3242 318.263-16.3164 318.388-16.3008 318.513-16.2852 318.61-16.2617 318.681-16.2305 318.751-16.1992 318.802-16.1602 318.833-16.1133 318.864-16.0664 318.88-16.0117 318.88-15.9492Z" fill="#FFFFFF" transform="translate(21.9677 29)"/></g></g></g><path d="M23.6672 0.500053 1261.5 0.500053 1261.5 21.3327C1261.5 23.6343 1259.63 25.5001 1257.33 25.5001L19.5001 25.5001 19.5001 4.6674C19.5001 2.36584 21.3658 0.500053 23.6672 0.500053Z" stroke="#074365" stroke-width="1.33333" stroke-miterlimit="8" fill="url(#fill33)" fill-rule="evenodd"/><text fill="#FFFFFF" font-family="Calibri,Calibri_MSFontService,sans-serif" font-weight="400" font-size="24" transform="translate(479.673 20)">Dashboard SSS Burger King Brasil</text></g></svg>